<svg width="49" height="48" viewBox="0 0 49 48" fill="none" xmlns="http://www.w3.org/2000/svg">
<path fill-rule="evenodd" clip-rule="evenodd" d="M24.5838 2.5H24.7502C27.4886 2.49998 29.6584 2.49997 31.3911 2.67623C33.1664 2.85683 34.6485 3.23479 35.9449 4.10104C36.9822 4.79415 37.8728 5.68478 38.566 6.72208C39.4322 8.01852 39.8102 9.5006 39.9908 11.2759C40.167 13.0086 40.167 15.1784 40.167 17.9168V30.0832C40.167 32.8216 40.167 34.9914 39.9908 36.7241C39.8102 38.4994 39.4322 39.9815 38.566 41.2779C37.8728 42.3152 36.9822 43.2059 35.9449 43.899C34.6485 44.7652 33.1664 45.1432 31.3911 45.3238C29.6584 45.5 27.4886 45.5 24.7501 45.5H24.5839C21.8454 45.5 19.6756 45.5 17.9429 45.3238C16.1676 45.1432 14.6855 44.7652 13.3891 43.899C12.3518 43.2059 11.4611 42.3152 10.768 41.2779C9.90178 39.9815 9.52382 38.4994 9.34323 36.7241C9.16696 34.9914 9.16697 32.8216 9.16699 30.0832V17.9168C9.16697 15.1784 9.16696 13.0086 9.34323 11.2759C9.52382 9.5006 9.90178 8.01852 10.768 6.72208C11.4611 5.68478 12.3518 4.79415 13.3891 4.10104C14.6855 3.23479 16.1676 2.85683 17.9429 2.67623C19.6756 2.49997 21.8454 2.49998 24.5838 2.5ZM18.2465 5.66083C16.7084 5.81729 15.7771 6.11346 15.0558 6.59545C14.3461 7.06968 13.7367 7.67906 13.2624 8.38879C12.7805 9.11014 12.4843 10.0414 12.3278 11.5795C12.1688 13.1427 12.167 15.1599 12.167 18V30C12.167 32.8401 12.1688 34.8573 12.3278 36.4205C12.4843 37.9586 12.7805 38.8899 13.2624 39.6112C13.7367 40.3209 14.3461 40.9303 15.0558 41.4046C15.7771 41.8865 16.7084 42.1827 18.2465 42.3392C19.8096 42.4982 21.8268 42.5 24.667 42.5C27.5071 42.5 29.5243 42.4982 31.0875 42.3392C32.6256 42.1827 33.5568 41.8865 34.2782 41.4046C34.9879 40.9303 35.5973 40.3209 36.0715 39.6112C36.5535 38.8899 36.8497 37.9586 37.0062 36.4205C37.1652 34.8573 37.167 32.8401 37.167 30V18C37.167 15.1599 37.1652 13.1427 37.0062 11.5795C36.8497 10.0414 36.5535 9.11014 36.0715 8.38879C35.5973 7.67906 34.9879 7.06968 34.2782 6.59545C33.5568 6.11346 32.6256 5.81729 31.0875 5.66083C29.5243 5.50181 27.5071 5.5 24.667 5.5C21.8268 5.5 19.8096 5.50181 18.2465 5.66083ZM17.167 11C17.167 10.1716 17.8386 9.5 18.667 9.5H30.667C31.4954 9.5 32.167 10.1716 32.167 11C32.167 11.8284 31.4954 12.5 30.667 12.5H18.667C17.8386 12.5 17.167 11.8284 17.167 11ZM24.667 26.5C22.1817 26.5 20.167 28.5147 20.167 31C20.167 33.4853 22.1817 35.5 24.667 35.5C27.1523 35.5 29.167 33.4853 29.167 31C29.167 28.5147 27.1523 26.5 24.667 26.5ZM17.167 31C17.167 26.8579 20.5249 23.5 24.667 23.5C28.8091 23.5 32.167 26.8579 32.167 31C32.167 35.1421 28.8091 38.5 24.667 38.5C20.5249 38.5 17.167 35.1421 17.167 31Z" fill="#0054C5"/>
<path d="M20.667 18C20.667 19.1046 19.7716 20 18.667 20C17.5624 20 16.667 19.1046 16.667 18C16.667 16.8954 17.5624 16 18.667 16C19.7716 16 20.667 16.8954 20.667 18Z" fill="#0054C5"/>
<path d="M26.667 18C26.667 19.1046 25.7716 20 24.667 20C23.5624 20 22.667 19.1046 22.667 18C22.667 16.8954 23.5624 16 24.667 16C25.7716 16 26.667 16.8954 26.667 18Z" fill="#0054C5"/>
<path d="M32.667 18C32.667 19.1046 31.7716 20 30.667 20C29.5624 20 28.667 19.1046 28.667 18C28.667 16.8954 29.5624 16 30.667 16C31.7716 16 32.667 16.8954 32.667 18Z" fill="#0054C5"/>
</svg>
