<svg width="25" height="24" viewBox="0 0 25 24" fill="none" xmlns="http://www.w3.org/2000/svg">
<path fill-rule="evenodd" clip-rule="evenodd" d="M16.2771 1.58382C17.9338 1.34715 19.416 2.63267 19.416 4.30618V5.68268C20.6055 6.31143 21.416 7.56114 21.416 9.00016V19.0002C21.416 21.0712 19.7371 22.7502 17.666 22.7502H7.66602C5.59495 22.7502 3.91602 21.0712 3.91602 19.0002V5.00016C3.91602 4.99086 3.91618 4.98161 3.91652 4.97239C3.91618 4.958 3.91602 4.94357 3.91602 4.92909C3.91602 4.02284 4.5824 3.25449 5.47954 3.12633L16.2771 1.58382ZM5.41602 6.75016V19.0002C5.41602 20.2428 6.42338 21.2502 7.66602 21.2502H17.666C18.9087 21.2502 19.916 20.2428 19.916 19.0002V9.00016C19.916 7.75752 18.9087 6.75016 17.666 6.75016H5.41602ZM5.73708 5.25016H17.916V4.30618C17.916 3.54549 17.2423 2.96117 16.4892 3.06874L5.69168 4.61125C5.5335 4.63385 5.41602 4.76931 5.41602 4.92909C5.41602 5.10641 5.55976 5.25016 5.73708 5.25016ZM7.91602 12.0002C7.91602 11.5859 8.2518 11.2502 8.66602 11.2502H16.666C17.0802 11.2502 17.416 11.5859 17.416 12.0002C17.416 12.4144 17.0802 12.7502 16.666 12.7502H8.66602C8.2518 12.7502 7.91602 12.4144 7.91602 12.0002ZM7.91602 15.5002C7.91602 15.0859 8.2518 14.7502 8.66602 14.7502H14.166C14.5802 14.7502 14.916 15.0859 14.916 15.5002C14.916 15.9144 14.5802 16.2502 14.166 16.2502H8.66602C8.2518 16.2502 7.91602 15.9144 7.91602 15.5002Z" fill="#333333"/>
</svg>
