<svg width="25" height="24" viewBox="0 0 25 24" fill="none" xmlns="http://www.w3.org/2000/svg">
<path fill-rule="evenodd" clip-rule="evenodd" d="M8.61114 1.25H16.7209C18.0885 1.24998 19.1908 1.24996 20.0578 1.36652C20.9579 1.48754 21.7158 1.74643 22.3177 2.34835C22.9196 2.95027 23.1785 3.70814 23.2995 4.60825C23.4161 5.47522 23.416 6.57754 23.416 7.94513V12.0549C23.416 13.4225 23.4161 14.5248 23.2995 15.3918C23.1785 16.2919 22.9196 17.0497 22.3177 17.6516C21.8198 18.1496 21.2129 18.4146 20.5021 18.5593C20.1399 18.6331 19.7384 18.6779 19.2962 18.7053C19.2985 18.7104 19.3007 18.7155 19.3029 18.7207C19.5758 19.361 19.3429 20.1059 18.723 20.4572C18.5367 20.5629 18.3363 20.6009 18.1961 20.6227C18.0496 20.6454 17.8666 20.6633 17.6634 20.6832L17.6436 20.6851C17.5128 20.6979 17.4386 20.7053 17.3835 20.7132C17.3584 20.7168 17.3452 20.7194 17.3399 20.7206C17.3243 20.7267 17.3137 20.7343 17.3069 20.7408C17.3019 20.7457 17.2981 20.7506 17.2954 20.7557C17.2942 20.7613 17.2926 20.7704 17.2905 20.7839C17.2827 20.8342 17.2751 20.903 17.2617 21.0292L17.2595 21.0498C17.2389 21.2432 17.22 21.421 17.1958 21.5641C17.1726 21.702 17.1308 21.9054 17.0146 22.0938C16.6404 22.7006 15.8933 22.8883 15.2786 22.6475C15.0868 22.5723 14.9328 22.4498 14.8217 22.3543C14.7079 22.2565 14.5738 22.1279 14.4237 21.984L12.666 20.2989L10.9084 21.984C10.7582 22.1279 10.6241 22.2565 10.5103 22.3543C10.3992 22.4498 10.2453 22.5723 10.0534 22.6475C9.43871 22.8883 8.69168 22.7006 8.31742 22.0938C8.20124 21.9054 8.15946 21.702 8.1362 21.5641C8.11206 21.421 8.09312 21.2431 8.07253 21.0497L8.07034 21.0292C8.0569 20.903 8.04937 20.8342 8.04157 20.7839C8.03948 20.7704 8.03779 20.7613 8.03667 20.7557C8.0339 20.7506 8.03017 20.7457 8.0251 20.7408C8.01829 20.7343 8.00776 20.7267 7.99215 20.7206C7.98688 20.7194 7.97364 20.7168 7.94856 20.7132C7.89343 20.7053 7.81921 20.6979 7.68845 20.6851L7.66864 20.6832C7.4654 20.6633 7.28239 20.6454 7.13594 20.6227C6.99578 20.6009 6.79536 20.5629 6.609 20.4572C5.98909 20.1059 5.7562 19.361 6.02913 18.7207C6.03134 18.7155 6.03358 18.7104 6.03586 18.7052C5.6372 18.6805 5.27316 18.6418 4.94237 18.5811C4.18437 18.4418 3.5393 18.1766 3.01437 17.6517C2.41245 17.0497 2.15356 16.2919 2.03254 15.3918C1.91598 14.5248 1.916 13.4225 1.91602 12.0549V7.94513C1.916 6.57754 1.91598 5.47522 2.03254 4.60825C2.15356 3.70814 2.41245 2.95027 3.01437 2.34835C3.61628 1.74643 4.37416 1.48754 5.27427 1.36652C6.14123 1.24996 7.24355 1.24998 8.61114 1.25ZM7.39891 17.2462L8.21472 16.4641L8.9239 15.7549C9.05014 13.7981 10.6773 12.25 12.666 12.25C14.6547 12.25 16.2819 13.7981 16.4081 15.7549L17.1173 16.4641L17.9782 17.2894L17.9777 17.2458C18.9644 17.2353 19.6677 17.1984 20.2028 17.0895C20.7173 16.9847 21.0251 16.8229 21.257 16.591C21.5338 16.3142 21.7142 15.9257 21.8129 15.1919C21.9144 14.4365 21.916 13.4354 21.916 12V8C21.916 6.56458 21.9144 5.56347 21.8129 4.80812C21.7142 4.07435 21.5338 3.68577 21.257 3.40901C20.9802 3.13225 20.5917 2.9518 19.8579 2.85315C19.1025 2.75159 18.1014 2.75 16.666 2.75H8.66602C7.2306 2.75 6.22949 2.75159 5.47414 2.85315C4.74036 2.9518 4.35179 3.13225 4.07503 3.40901C3.79826 3.68577 3.61782 4.07435 3.51916 4.80812C3.41761 5.56347 3.41602 6.56459 3.41602 8V12C3.41602 13.4354 3.41761 14.4365 3.51916 15.1919C3.61782 15.9257 3.79826 16.3142 4.07503 16.591C4.31848 16.8344 4.64655 17.0016 5.21336 17.1057C5.75175 17.2046 6.44664 17.2368 7.39891 17.2462ZM16.0819 17.5495C15.6754 18.4444 14.9275 19.1513 14.0045 19.5041L15.4479 20.888C15.5759 21.0107 15.6669 21.0977 15.7379 21.1622C15.747 21.0864 15.7572 20.9919 15.7701 20.8702C15.7719 20.8537 15.7737 20.8368 15.7754 20.8197C15.7945 20.636 15.8171 20.4185 15.8929 20.2221C16.0609 19.7871 16.4109 19.4585 16.8425 19.3054C17.0368 19.2364 17.2519 19.2158 17.4455 19.1973C17.463 19.1956 17.4803 19.1939 17.4974 19.1922C17.6048 19.1817 17.6927 19.1731 17.766 19.1652C17.709 19.1094 17.6391 19.0423 17.5517 18.9586L16.0819 17.5495ZM12.6962 18.2498L12.666 18.2209L12.6359 18.2498C11.4071 18.2337 10.416 17.2326 10.416 16C10.416 14.7574 11.4234 13.75 12.666 13.75C13.9087 13.75 14.916 14.7574 14.916 16C14.916 17.2326 13.9249 18.2337 12.6962 18.2498ZM11.3276 19.5041L9.88411 20.888C9.7561 21.0107 9.66514 21.0977 9.59415 21.1622C9.58503 21.0864 9.57486 20.9919 9.5619 20.8702C9.56014 20.8537 9.55838 20.8368 9.5566 20.8197C9.53753 20.636 9.51496 20.4185 9.43912 20.2221C9.27114 19.7871 8.92109 19.4585 8.48953 19.3054C8.29519 19.2364 8.08013 19.2158 7.88654 19.1973C7.86906 19.1956 7.85175 19.1939 7.83465 19.1922C7.72722 19.1817 7.63935 19.1731 7.56606 19.1652C7.62303 19.1094 7.69297 19.0423 7.78029 18.9586L9.25009 17.5495C9.65666 18.4444 10.4046 19.1513 11.3276 19.5041ZM8.91602 6C8.91602 5.58579 9.2518 5.25 9.66602 5.25H15.666C16.0802 5.25 16.416 5.58579 16.416 6C16.416 6.41421 16.0802 6.75 15.666 6.75H9.66602C9.2518 6.75 8.91602 6.41421 8.91602 6ZM6.91602 9.5C6.91602 9.08579 7.2518 8.75 7.66602 8.75H17.666C18.0802 8.75 18.416 9.08579 18.416 9.5C18.416 9.91422 18.0802 10.25 17.666 10.25H7.66602C7.2518 10.25 6.91602 9.91422 6.91602 9.5Z" fill="#333333"/>
</svg>
