<svg width="25" height="24" viewBox="0 0 25 24" fill="none" xmlns="http://www.w3.org/2000/svg">
<path fill-rule="evenodd" clip-rule="evenodd" d="M11.916 2C11.916 1.58579 12.2518 1.25 12.666 1.25C18.6031 1.25 23.416 6.06294 23.416 12C23.416 17.9371 18.6031 22.75 12.666 22.75C6.72895 22.75 1.91602 17.9371 1.91602 12C1.91602 11.5858 2.2518 11.25 2.66602 11.25C3.08023 11.25 3.41602 11.5858 3.41602 12C3.41602 17.1086 7.55738 21.25 12.666 21.25C17.7746 21.25 21.916 17.1086 21.916 12C21.916 6.89137 17.7746 2.75 12.666 2.75C12.2518 2.75 11.916 2.41421 11.916 2ZM12.666 8.25C13.0802 8.25 13.416 8.58579 13.416 9V12.25H16.666C17.0802 12.25 17.416 12.5858 17.416 13C17.416 13.4142 17.0802 13.75 16.666 13.75H12.666C12.2518 13.75 11.916 13.4142 11.916 13V9C11.916 8.58579 12.2518 8.25 12.666 8.25Z" fill="#333333"/>
<path fill-rule="evenodd" clip-rule="evenodd" d="M9.76559 2.39754C9.91476 2.78396 9.72242 3.21814 9.336 3.36731C9.19457 3.42191 9.05481 3.47988 8.91681 3.54114C8.53823 3.70921 8.09508 3.53856 7.92701 3.15997C7.75894 2.78139 7.9296 2.33824 8.30818 2.17017C8.46869 2.09892 8.63127 2.03147 8.79582 1.96795C9.18224 1.81878 9.61642 2.01112 9.76559 2.39754ZM6.31372 4.24026C6.59938 4.54021 6.5878 5.01495 6.28785 5.30061C6.17818 5.40506 6.07107 5.51216 5.96662 5.62183C5.68096 5.92178 5.20623 5.93337 4.90628 5.6477C4.60633 5.36204 4.59475 4.88731 4.88041 4.58736C5.00168 4.46003 5.12604 4.33566 5.25337 4.21439C5.55332 3.92873 6.02806 3.94031 6.31372 4.24026ZM3.82599 7.261C4.20457 7.42907 4.37523 7.87222 4.20716 8.2508C4.1459 8.38879 4.08792 8.52855 4.03333 8.66999C3.88416 9.05641 3.44998 9.24874 3.06356 9.09958C2.67713 8.95041 2.4848 8.51623 2.63397 8.12981C2.69749 7.96526 2.76493 7.80267 2.83619 7.64217C3.00425 7.26358 3.4474 7.09293 3.82599 7.261Z" fill="#333333"/>
</svg>
