<svg width="25" height="24" viewBox="0 0 25 24" fill="none" xmlns="http://www.w3.org/2000/svg">
<path d="M19.0229 1.61424C19.236 1.25906 19.6967 1.14388 20.0519 1.35699L19.666 2.00011C20.0519 1.35699 20.0515 1.35679 20.0519 1.35699L20.0533 1.35783L20.0548 1.35878L20.0586 1.36103L20.0681 1.36695C20.0755 1.37153 20.0847 1.37737 20.0957 1.38448C20.1177 1.39871 20.1469 1.41809 20.1821 1.44272C20.2524 1.49194 20.3473 1.56244 20.4587 1.6552C20.6808 1.84029 20.9712 2.11678 21.2605 2.49283C21.8434 3.25057 22.416 4.40746 22.416 6.00011C22.416 7.59277 21.8434 8.74966 21.2605 9.5074C20.9712 9.88345 20.6808 10.1599 20.4587 10.345C20.3473 10.4378 20.2524 10.5083 20.1821 10.5575C20.1469 10.5821 20.1177 10.6015 20.0957 10.6157C20.0847 10.6229 20.0755 10.6287 20.0681 10.6333L20.0586 10.6392L20.0548 10.6414L20.0533 10.6424C20.0529 10.6426 20.0519 10.6432 19.666 10.0001L20.0519 10.6432C19.6967 10.8563 19.236 10.7412 19.0229 10.386C18.8107 10.0323 18.924 9.57398 19.2757 9.3597L19.2812 9.35616C19.2885 9.35145 19.3024 9.34231 19.3219 9.32866C19.3609 9.30132 19.4222 9.25619 19.4984 9.1927C19.6513 9.06529 19.8608 8.86678 20.0715 8.59283C20.4887 8.05057 20.916 7.20746 20.916 6.00011C20.916 4.79277 20.4887 3.94966 20.0715 3.4074C19.8608 3.13345 19.6513 2.93494 19.4984 2.80753C19.4222 2.74403 19.3609 2.69891 19.3219 2.67157C19.3024 2.65792 19.2885 2.64878 19.2812 2.64406L19.2757 2.64053C18.924 2.42625 18.8107 1.96793 19.0229 1.61424Z" fill="#333333"/>
<path fill-rule="evenodd" clip-rule="evenodd" d="M10.666 1.25011C8.04266 1.25011 5.91602 3.37676 5.91602 6.00011C5.91602 8.62347 8.04266 10.7501 10.666 10.7501C13.2894 10.7501 15.416 8.62347 15.416 6.00011C15.416 3.37676 13.2894 1.25011 10.666 1.25011ZM7.41602 6.00011C7.41602 4.20519 8.87109 2.75011 10.666 2.75011C12.4609 2.75011 13.916 4.20519 13.916 6.00011C13.916 7.79504 12.4609 9.25011 10.666 9.25011C8.87109 9.25011 7.41602 7.79504 7.41602 6.00011Z" fill="#333333"/>
<path fill-rule="evenodd" clip-rule="evenodd" d="M10.666 12.2501C8.62668 12.2501 6.74353 12.7209 5.34416 13.5205C3.96601 14.308 2.91602 15.5102 2.91602 17.0001C2.91602 18.49 3.96601 19.6922 5.34416 20.4797C6.74353 21.2794 8.62668 21.7501 10.666 21.7501C12.7053 21.7501 14.5885 21.2794 15.9879 20.4797C17.366 19.6922 18.416 18.49 18.416 17.0001C18.416 15.5102 17.366 14.308 15.9879 13.5205C14.5885 12.7209 12.7053 12.2501 10.666 12.2501ZM4.41602 17.0001C4.41602 16.2808 4.93302 15.4831 6.08837 14.8229C7.22251 14.1748 8.83936 13.7501 10.666 13.7501C12.4927 13.7501 14.1095 14.1748 15.2437 14.8229C16.399 15.4831 16.916 16.2808 16.916 17.0001C16.916 17.7194 16.399 18.5172 15.2437 19.1774C14.1095 19.8254 12.4927 20.2501 10.666 20.2501C8.83936 20.2501 7.22251 19.8254 6.08837 19.1774C4.93302 18.5172 4.41602 17.7194 4.41602 17.0001Z" fill="#333333"/>
<path d="M18.0519 3.35699C17.6967 3.14388 17.236 3.25906 17.0229 3.61424L17.2711 4.63774L17.2789 4.64305C17.2906 4.65125 17.3128 4.66747 17.3421 4.6919C17.4013 4.74119 17.4858 4.82095 17.5715 4.9324C17.7387 5.14966 17.916 5.49277 17.916 6.00011C17.916 6.50746 17.7387 6.85057 17.5715 7.06783C17.4858 7.17928 17.4013 7.25904 17.3421 7.30832C17.3128 7.33276 17.2906 7.34897 17.2789 7.35717L17.2711 7.36249C16.923 7.57794 16.8116 8.03382 17.0229 8.38599C17.236 8.74117 17.6967 8.85634 18.0519 8.64323L17.666 8.00011C18.0519 8.64323 18.0516 8.64343 18.0519 8.64323L18.0532 8.64243L18.0547 8.64156L18.0578 8.63963L18.0653 8.63504L18.0845 8.62282C18.0992 8.61333 18.1176 8.60108 18.1391 8.58602C18.1821 8.55594 18.238 8.51435 18.3024 8.46065C18.4308 8.35369 18.5962 8.19594 18.7605 7.9824C19.0934 7.54966 19.416 6.89277 19.416 6.00011C19.416 5.10746 19.0934 4.45057 18.7605 4.01783C18.5962 3.80428 18.4308 3.64654 18.3024 3.53957C18.238 3.48588 18.1821 3.44428 18.1391 3.4142C18.1176 3.39914 18.0992 3.3869 18.0845 3.3774L18.0653 3.36519L18.0578 3.36059L18.0547 3.35867L18.0532 3.3578C18.0529 3.3576 18.0519 3.35699 17.666 4.00011L18.0519 3.35699Z" fill="#333333"/>
</svg>
