<svg width="24" height="25" viewBox="0 0 24 25" fill="none" xmlns="http://www.w3.org/2000/svg">
<path fill-rule="evenodd" clip-rule="evenodd" d="M12 3.25C11.3096 3.25 10.75 3.80964 10.75 4.5C10.75 5.19036 11.3096 5.75 12 5.75C12.6904 5.75 13.25 5.19036 13.25 4.5C13.25 3.80964 12.6904 3.25 12 3.25ZM9.25 4.5C9.25 2.98122 10.4812 1.75 12 1.75C13.5188 1.75 14.75 2.98122 14.75 4.5C14.75 6.01878 13.5188 7.25 12 7.25C10.4812 7.25 9.25 6.01878 9.25 4.5ZM16.9894 7.66382C18.4102 7.35936 19.75 8.44247 19.75 9.89553C19.75 10.8779 19.1214 11.7501 18.1894 12.0608L16.0141 12.7859C15.877 12.8316 15.795 12.8591 15.7342 12.8821C15.6957 12.8966 15.6795 12.9044 15.6756 12.9063C15.5935 12.9582 15.5488 13.0528 15.561 13.1491C15.562 13.1534 15.5663 13.1709 15.5795 13.2098C15.6004 13.2714 15.6313 13.3522 15.6832 13.487L16.93 16.7287C17.4901 18.1849 16.4152 19.75 14.8549 19.75C14.0571 19.75 13.3205 19.3225 12.9246 18.6298L12 17.0117L11.0754 18.6298C10.6795 19.3225 9.94287 19.75 9.14506 19.75C7.58484 19.75 6.50994 18.1849 7.07002 16.7287L8.31681 13.487C8.36869 13.3522 8.3996 13.2714 8.42051 13.2098C8.43373 13.1709 8.43803 13.1534 8.43901 13.1491C8.4512 13.0528 8.40652 12.9582 8.32443 12.9063C8.32052 12.9044 8.30434 12.8966 8.26583 12.8821C8.20501 12.8591 8.12301 12.8316 7.98592 12.7859L5.81062 12.0608C4.87863 11.7501 4.25 10.8779 4.25 9.89553C4.25 8.44247 5.5898 7.35936 7.0106 7.66382L8.90817 8.07044C9.01467 8.09326 9.06443 8.10392 9.11353 8.11407C11.0177 8.50795 12.9823 8.50795 14.8865 8.11407C14.9356 8.10392 14.9853 8.09326 15.0918 8.07044L16.9894 7.66382ZM18.25 9.89553C18.25 9.39743 17.7907 9.02615 17.3037 9.13052L15.4034 9.53773C15.3006 9.55975 15.2453 9.5716 15.1903 9.58298C13.0857 10.0183 10.9143 10.0183 8.80969 9.58298C8.7547 9.5716 8.69947 9.55977 8.59688 9.53779L6.69631 9.13052C6.20927 9.02615 5.75 9.39743 5.75 9.89553C5.75 10.2323 5.96549 10.5313 6.28497 10.6378L8.46026 11.3629C8.47839 11.3689 8.49661 11.3749 8.5149 11.381C8.72048 11.4491 8.93409 11.5199 9.1102 11.6286C9.69929 11.9922 10.0186 12.669 9.92485 13.3548C9.89681 13.5599 9.81566 13.7698 9.73756 13.9718C9.73061 13.9898 9.72369 14.0077 9.71683 14.0255L8.47004 17.2672C8.28784 17.7409 8.63751 18.25 9.14506 18.25C9.40459 18.25 9.64422 18.1109 9.77299 17.8856L11.3488 15.1279C11.4823 14.8942 11.7309 14.75 12 14.75C12.2691 14.75 12.5177 14.8942 12.6512 15.1279L14.227 17.8856C14.3558 18.1109 14.5954 18.25 14.8549 18.25C15.3625 18.25 15.7122 17.7409 15.53 17.2672L14.2832 14.0255C14.2763 14.0077 14.2694 13.9898 14.2624 13.9718C14.1843 13.7698 14.1032 13.5599 14.0751 13.3548C13.9814 12.669 14.3007 11.9922 14.8898 11.6286C15.0659 11.5199 15.2795 11.4491 15.4851 11.381C15.5034 11.3749 15.5216 11.3689 15.5397 11.3629L17.715 10.6378C18.0345 10.5313 18.25 10.2323 18.25 9.89553ZM5.21639 14.6631C5.40245 15.0332 5.25328 15.484 4.88321 15.6701C3.36229 16.4348 2.75 17.2949 2.75 18C2.75 18.7637 3.47401 19.7048 5.23671 20.498C6.929 21.2596 9.31952 21.75 12 21.75C14.6805 21.75 17.071 21.2596 18.7633 20.498C20.526 19.7048 21.25 18.7637 21.25 18C21.25 17.2949 20.6377 16.4348 19.1168 15.6701C18.7467 15.484 18.5975 15.0332 18.7836 14.6631C18.9697 14.293 19.4205 14.1439 19.7906 14.3299C21.4366 15.1575 22.75 16.4 22.75 18C22.75 19.7216 21.2354 21.0305 19.3788 21.8659C17.4518 22.7331 14.8424 23.25 12 23.25C9.15764 23.25 6.54815 22.7331 4.62116 21.8659C2.76457 21.0305 1.25 19.7216 1.25 18C1.25 16.4 2.5634 15.1575 4.20941 14.3299C4.57948 14.1439 5.03032 14.293 5.21639 14.6631Z" fill="white"/>
</svg>
