<svg width="100" height="101" viewBox="0 0 100 101" fill="none" xmlns="http://www.w3.org/2000/svg">
<g clip-path="url(#clip0_2043_2481)">
<path d="M6.25 47.375H65.625C69.0625 47.375 71.875 50.1875 71.875 53.625V94.25C71.875 97.6875 69.0625 100.5 65.625 100.5H6.25C2.8125 100.5 0 97.6875 0 94.25V53.625C0 50.1875 2.8125 47.375 6.25 47.375Z" fill="#5067D9"/>
<path d="M0 55.1875H71.875V70.8125H0V55.1875Z" fill="#002CBE"/>
<path d="M71.875 53.625V55.1875H25V47.375H65.625C69.0625 47.375 71.875 50.1875 71.875 53.625Z" fill="#003CBE"/>
<path d="M71.875 55.1875V70.8125H34.375C29.2188 70.8125 25 66.5938 25 61.4375V55.1875H71.875Z" fill="#000EAA"/>
<path d="M100 20.8125V61.4375C100 64.875 97.1875 67.6875 93.75 67.6875H34.375C30.9375 67.6875 28.125 64.875 28.125 61.4375V20.8125C28.125 17.375 30.9375 14.5625 34.375 14.5625H93.75C97.1875 14.5625 100 17.375 100 20.8125Z" fill="#93A6E6"/>
<path d="M78.125 20.8125H90.625C92.3438 20.8125 93.75 22.2188 93.75 23.9375V30.1875C93.75 31.9062 92.3438 33.3125 90.625 33.3125H78.125C76.4062 33.3125 75 31.9062 75 30.1875V23.9375C75 22.2188 76.4062 20.8125 78.125 20.8125Z" fill="#FFAC00"/>
<path d="M51.5625 22.375C51.5625 23.3125 50.9375 23.9375 50 23.9375H34.375C33.4375 23.9375 32.8125 23.3125 32.8125 22.375C32.8125 21.4375 33.4375 20.8125 34.375 20.8125H50C50.9375 20.8125 51.5625 21.4375 51.5625 22.375Z" fill="#5062D9"/>
<path d="M34.375 20.8125C33.4375 20.8125 32.8125 21.4375 32.8125 22.375C32.8125 23.3125 33.4375 23.9375 34.375 23.9375H40C40.1563 22.8438 40.3125 21.9062 40.4687 20.8125H34.375Z" fill="#003CBE"/>
<path d="M40.625 14.5626C40.625 16.5938 40.625 18.7813 40.4687 20.8126H34.375C33.4375 20.8126 32.8125 21.4376 32.8125 22.3751C32.8125 23.3126 33.4375 23.9376 34.375 23.9376H40C38.5938 31.5938 34.2188 38.3126 28.125 42.8438V29.0938C31.4062 23.7813 31.25 19.4063 31.25 15.3438C33.125 14.2501 34.375 14.5626 40.625 14.5626Z" fill="#5062D9"/>
<path d="M43.75 30.1875H50C50.9375 30.1875 51.5625 29.5625 51.5625 28.625C51.5625 27.6875 50.9375 27.0625 50 27.0625H43.75C42.8125 27.0625 42.1875 27.6875 42.1875 28.625C42.1875 29.5625 42.8125 30.1875 43.75 30.1875Z" fill="#5062D9"/>
<path d="M35.9375 9.875V18.1562C35.9375 29.0938 29.0625 38.9375 18.75 42.6875C8.4375 38.9375 1.5625 29.0938 1.5625 18.1562V9.875L18.75 2.0625L35.9375 9.875Z" fill="#FFAC00"/>
<path d="M18.2812 44.0938C7.34375 40.1875 0 29.7188 0 18.1562V9.875C0 9.25 0.3125 8.78125 0.9375 8.46875L18.125 0.65625C18.5938 0.5 19.0625 0.5 19.375 0.65625L36.5625 8.46875C37.1875 8.78125 37.5 9.25 37.5 9.875V18.1562C37.5 29.7188 30.1562 40.1875 19.2188 44.25C18.9062 44.25 18.5938 44.25 18.2812 44.0938ZM3.125 10.8125V18.1562C3.125 28.3125 9.375 37.375 18.75 40.9688C28.125 37.2188 34.375 28.1563 34.375 18.1562V10.8125L18.75 3.78125L3.125 10.8125Z" fill="#EA9706"/>
<path d="M64.0625 42.6875H60.9375C60 42.6875 59.375 42.0625 59.375 41.125C59.375 40.1875 60 39.5625 60.9375 39.5625H64.0625C65 39.5625 65.625 40.1875 65.625 41.125C65.625 42.0625 65 42.6875 64.0625 42.6875Z" fill="#5062D9"/>
<path d="M73.4375 42.6875H70.3125C69.375 42.6875 68.75 42.0625 68.75 41.125C68.75 40.1875 69.375 39.5625 70.3125 39.5625H73.4375C74.375 39.5625 75 40.1875 75 41.125C75 42.0625 74.375 42.6875 73.4375 42.6875Z" fill="#5062D9"/>
<path d="M82.8125 42.6875H79.6875C78.75 42.6875 78.125 42.0625 78.125 41.125C78.125 40.1875 78.75 39.5625 79.6875 39.5625H82.8125C83.75 39.5625 84.375 40.1875 84.375 41.125C84.375 42.0625 83.75 42.6875 82.8125 42.6875Z" fill="#5062D9"/>
<path d="M92.1875 42.6875H89.0625C88.125 42.6875 87.5 42.0625 87.5 41.125C87.5 40.1875 88.125 39.5625 89.0625 39.5625H92.1875C93.125 39.5625 93.75 40.1875 93.75 41.125C93.75 42.0625 93.125 42.6875 92.1875 42.6875Z" fill="#5062D9"/>
<path d="M89.0624 61.4375C86.0937 61.4375 87.4999 55.1875 92.1874 55.1875C93.1249 55.1875 93.7499 55.8125 93.7499 56.75C93.7499 57.6875 93.1249 58.3125 92.1874 58.3125C91.2499 58.3125 90.6249 58.9375 90.6249 59.875C90.6249 60.8125 89.9999 61.4375 89.0624 61.4375Z" fill="#5062D9"/>
<path d="M82.8125 61.4375C81.875 61.4375 81.25 60.8125 81.25 59.875C81.25 53.7812 86.0938 48.9375 92.1875 48.9375C93.125 48.9375 93.75 49.5625 93.75 50.5C93.75 51.4375 93.125 52.0625 92.1875 52.0625C87.8125 52.0625 84.375 55.5 84.375 59.875C84.375 60.8125 83.75 61.4375 82.8125 61.4375Z" fill="#5062D9"/>
<path d="M10.625 23.4687C10 22.8437 10 21.9062 10.625 21.2812C11.25 20.6562 12.1875 20.6562 12.8125 21.2812L16.4062 24.875L24.6875 16.5938C25.3125 15.9688 26.25 15.9688 26.875 16.5938C27.5 17.2188 27.5 18.1562 26.875 18.7812L17.5 28.1563C16.875 28.7813 15.9375 28.7813 15.3125 28.1563C15.3125 28.1563 13.4375 26.2812 10.625 23.4687Z" fill="#F3F3F3"/>
<path d="M7.8125 75.5H42.1875C43.9062 75.5 45.3125 76.9062 45.3125 78.625V81.75C45.3125 83.4688 43.9062 84.875 42.1875 84.875H7.8125C6.09375 84.875 4.6875 83.4688 4.6875 81.75V78.625C4.6875 76.9062 6.09375 75.5 7.8125 75.5Z" fill="#F3F3F3"/>
<path d="M12.5 81.75H9.375C8.4375 81.75 7.8125 81.125 7.8125 80.1875C7.8125 79.25 8.4375 78.625 9.375 78.625H12.5C13.4375 78.625 14.0625 79.25 14.0625 80.1875C14.0625 81.125 13.4375 81.75 12.5 81.75Z" fill="#D9D9D9"/>
<path d="M21.875 81.75H18.75C17.8125 81.75 17.1875 81.125 17.1875 80.1875C17.1875 79.25 17.8125 78.625 18.75 78.625H21.875C22.8125 78.625 23.4375 79.25 23.4375 80.1875C23.4375 81.125 22.8125 81.75 21.875 81.75Z" fill="#D9D9D9"/>
<path d="M31.25 81.75H28.125C27.1875 81.75 26.5625 81.125 26.5625 80.1875C26.5625 79.25 27.1875 78.625 28.125 78.625H31.25C32.1875 78.625 32.8125 79.25 32.8125 80.1875C32.8125 81.125 32.1875 81.75 31.25 81.75Z" fill="#D9D9D9"/>
<path d="M40.625 81.75H37.5C36.5625 81.75 35.9375 81.125 35.9375 80.1875C35.9375 79.25 36.5625 78.625 37.5 78.625H40.625C41.5625 78.625 42.1875 79.25 42.1875 80.1875C42.1875 81.125 41.5625 81.75 40.625 81.75Z" fill="#D9D9D9"/>
<path d="M54.8437 59.875H38.9062C37.3437 59.875 35.9375 58.625 35.9375 56.9062V50.1875C35.9375 48.625 37.1875 47.2188 38.9062 47.2188H55C56.5625 47.2188 57.9687 48.4687 57.9687 50.1875V56.9062C57.8125 58.625 56.5625 59.875 54.8437 59.875Z" fill="#5062D9"/>
</g>
<defs>
<clipPath id="clip0_2043_2481">
<rect width="100" height="100" fill="white" transform="translate(0 0.5)"/>
</clipPath>
</defs>
</svg>
