<svg width="100" height="101" viewBox="0 0 100 101" fill="none" xmlns="http://www.w3.org/2000/svg">
<g clip-path="url(#clip0_2043_2517)">
<path d="M73.9692 100.5H83.1673L72.6809 65.0886H63.4829L69.1186 84.1198H30.8805L36.5165 65.0886H27.3184L16.832 100.5H26.0301L28.9063 90.7864H71.0928L73.9692 100.5Z" fill="#DC8744"/>
<path d="M0 68.8816V5.8334C0 2.88782 2.38782 0.5 5.33319 0.5H94.6662C97.6118 0.5 99.9996 2.88782 99.9996 5.8334V68.8816C99.9996 71.8272 97.6118 74.215 94.6662 74.215H5.33319C2.38782 74.2148 0 71.827 0 68.8816Z" fill="#FCD462"/>
<path d="M93.5342 6.96826H6.46777V67.748H93.5342V6.96826Z" fill="#4477C4"/>
<path d="M10.953 6.96826H6.46777V67.748H10.953V6.96826Z" fill="#315597"/>
<path d="M93.5331 6.97241H89.0479V67.7522H93.5331V6.97241Z" fill="#315597"/>
<path d="M88.8876 12.9756H10.9175L6.46777 6.96802H93.5321L88.8876 12.9756Z" fill="#3E5FA6"/>
<path d="M88.8876 61.7395H10.9175L6.46777 67.7473H93.5321L88.8876 61.7395Z" fill="#3E5FA6"/>
<path d="M85.519 56.2068H61.4258V61.7375H85.519V56.2068Z" fill="#E1E6E9"/>
</g>
<defs>
<clipPath id="clip0_2043_2517">
<rect width="100" height="100" fill="white" transform="translate(0 0.5)"/>
</clipPath>
</defs>
</svg>
