<svg width="100" height="101" viewBox="0 0 100 101" fill="none" xmlns="http://www.w3.org/2000/svg">
<path d="M0 40.3438L50 10.6562L100 40.3438V84.0937H0V40.3438Z" fill="#D07C40"/>
<path d="M10.9375 2.84375H89.0624C90.7812 2.84375 92.1874 4.24995 92.1874 5.96878V60.6561C92.1874 62.3749 90.7812 63.7811 89.0624 63.7811H10.9375C9.2187 63.7811 7.8125 62.3749 7.8125 60.6561V5.96878C7.8127 4.25015 9.2189 2.84375 10.9375 2.84375Z" fill="#EFEFEF"/>
<path d="M82.4999 9.0938L87.4998 2.84375H89.0623C90.7812 2.84375 92.1874 4.24995 92.1874 5.96878V9.0938H82.4999ZM41.875 9.0938L46.8749 2.84375H57.8123L52.8123 9.0938H41.875ZM7.8125 9.0938V5.96878C7.8125 4.24995 9.2187 2.84375 10.9375 2.84375H18.7501L13.7499 9.0938H7.8125Z" fill="#26A6D1"/>
<path d="M99.9998 93.4686C99.9998 96.0467 97.8904 98.1561 95.3123 98.1561H4.68754C2.1094 98.1563 0 96.0467 0 93.4686V40.3438L50 62.2187L100 40.3438V93.4686H99.9998Z" fill="#EFC75E"/>
<path d="M99.9998 93.4685C99.9998 96.0467 97.8904 98.1561 95.3123 98.1561H4.68754C2.1094 98.1563 0 96.0467 0 93.4685V84.0935L99.9998 40.3435V93.4685Z" fill="#E8C15B"/>
<path d="M31.7968 30.5781L32.4218 33.8595L27.4219 26.0469L20.3906 36.9843C20.3125 37.9999 24.8437 38.7811 30.4687 38.7811C36.0937 38.7811 40.625 37.9999 40.625 36.9843L34.4531 27.8437L31.7968 30.5781ZM32.4218 26.2812C33.5156 26.2812 34.3749 25.4219 34.3749 24.3281C34.3749 23.2343 33.5156 22.375 32.4218 22.375C31.328 22.375 30.4687 23.2343 30.4687 24.3281C30.4687 25.4219 31.328 26.2812 32.4218 26.2812ZM48.4375 25.5H79.6874C80.5467 25.5 81.2499 24.7968 81.2499 23.9375C81.2499 23.0782 80.5467 22.375 79.6874 22.375H48.4375C47.5782 22.375 46.875 23.0782 46.875 23.9375C46.875 24.7968 47.578 25.5 48.4375 25.5ZM79.6874 28.6251H48.4375C47.5782 28.6251 46.875 29.3283 46.875 30.1876C46.875 31.0469 47.5782 31.7501 48.4375 31.7501H79.6874C80.5467 31.7501 81.2499 31.0469 81.2499 30.1876C81.2499 29.3281 80.5467 28.6251 79.6874 28.6251ZM71.8748 34.8749H48.4375C47.5782 34.8749 46.875 35.5781 46.875 36.4374C46.875 37.2967 47.5782 37.9999 48.4375 37.9999H71.875C72.7343 37.9999 73.4375 37.2967 73.4375 36.4374C73.4373 35.5781 72.7343 34.8749 71.8748 34.8749Z" fill="#D6D9DB"/>
<path d="M62.1874 9.0938L67.1874 2.84375H78.1248L73.1248 9.0938H62.1874ZM21.5625 9.0938L26.5625 2.84375H37.4998L32.4999 9.0938H21.5625Z" fill="#E2574C"/>
</svg>
