<svg width="26" height="20" viewBox="0 0 26 20" fill="none" xmlns="http://www.w3.org/2000/svg">
<path d="M24.55 6.94026C24.6475 6.84274 24.745 6.82648 24.8426 6.8915C24.9726 6.95651 25.0376 7.05403 25.0376 7.18406V17.1312C25.0376 17.7813 24.8101 18.3339 24.355 18.789C23.8999 19.2441 23.3472 19.4717 22.6971 19.4717H2.41277C1.76263 19.4717 1.21002 19.2441 0.754919 18.789C0.299822 18.3339 0.0722738 17.7813 0.0722738 17.1312V7.18406C0.0722738 7.05403 0.121034 6.97276 0.218555 6.94026C0.348583 6.87524 0.462357 6.87524 0.559878 6.94026C1.63261 7.75293 4.13564 9.58957 8.06898 12.4502C8.13399 12.5152 8.34529 12.694 8.70287 12.9865C9.09295 13.2791 9.40176 13.5067 9.62931 13.6692C9.85686 13.7992 10.1494 13.978 10.507 14.2056C10.8646 14.4006 11.2059 14.5469 11.531 14.6444C11.8885 14.7419 12.2299 14.7907 12.5549 14.7907C12.8475 14.7907 13.1401 14.7582 13.4326 14.6932C13.7252 14.5956 14.0015 14.4981 14.2616 14.4006C14.5216 14.2706 14.7979 14.108 15.0905 13.913C15.383 13.718 15.6268 13.5554 15.8219 13.4254C16.0169 13.2629 16.2445 13.0841 16.5045 12.889C16.7646 12.694 16.9434 12.5477 17.0409 12.4502C20.8767 9.68709 23.3797 7.85045 24.55 6.94026ZM12.5549 13.2303C12.2949 13.2303 11.9698 13.1491 11.5797 12.9865C11.2222 12.7915 10.9296 12.629 10.702 12.4989C10.4745 12.3364 10.1332 12.0926 9.67807 11.7675C9.25548 11.41 9.02793 11.2312 8.99543 11.2312C5.02958 8.33805 2.20148 6.24136 0.511117 4.94108C0.218555 4.71353 0.0722738 4.40472 0.0722738 4.01463V3.08818C0.0722738 2.43805 0.299822 1.88543 0.754919 1.43033C1.21002 0.975234 1.76263 0.747685 2.41277 0.747685H22.6971C23.3472 0.747685 23.8999 0.975234 24.355 1.43033C24.8101 1.88543 25.0376 2.43805 25.0376 3.08818V4.01463C25.0376 4.40472 24.8913 4.71353 24.5988 4.94108C23.0059 6.17634 20.1778 8.27304 16.1144 11.2312C16.0819 11.2312 15.8381 11.41 15.383 11.7675C14.9605 12.0926 14.6354 12.3364 14.4078 12.4989C14.1803 12.629 13.8715 12.7915 13.4814 12.9865C13.1238 13.1491 12.815 13.2303 12.5549 13.2303Z" fill="white"/>
</svg>
