<svg width="19" height="26" viewBox="0 0 19 26" fill="none" xmlns="http://www.w3.org/2000/svg">
<path d="M8.45476 24.6057C7.67459 23.468 6.78065 22.184 5.77294 20.7536C4.79773 19.3233 4.09883 18.3156 3.67624 17.7305C3.25365 17.1454 2.76605 16.4302 2.21343 15.585C1.66081 14.7074 1.28698 14.0897 1.09194 13.7321C0.929405 13.3746 0.734363 12.9195 0.506814 12.3669C0.311773 11.8142 0.181745 11.3429 0.116731 10.9528C0.0842243 10.5302 0.0679708 10.0426 0.0679708 9.48999C0.0679708 6.88944 0.978165 4.67897 2.79855 2.85858C4.61894 1.03819 6.82941 0.127996 9.42997 0.127996C12.0305 0.127996 14.241 1.03819 16.0614 2.85858C17.8818 4.67897 18.792 6.88944 18.792 9.48999C18.792 10.0426 18.7595 10.5302 18.6944 10.9528C18.6619 11.3429 18.5319 11.8142 18.3044 12.3669C18.1093 12.9195 17.9143 13.3746 17.7192 13.7321C17.5567 14.0897 17.1991 14.7074 16.6465 15.585C16.0939 16.4302 15.6063 17.1454 15.1837 17.7305C14.7611 18.3156 14.046 19.3233 13.0382 20.7536C12.063 22.184 11.1853 23.468 10.4052 24.6057C10.1776 24.9308 9.85256 25.0933 9.42997 25.0933C9.00738 25.0933 8.68231 24.9308 8.45476 24.6057ZM6.65063 12.2693C7.43079 13.017 8.35724 13.3908 9.42997 13.3908C10.5027 13.3908 11.4129 13.017 12.1606 12.2693C12.9407 11.4892 13.3308 10.5627 13.3308 9.48999C13.3308 8.41726 12.9407 7.50707 12.1606 6.75941C11.4129 5.97924 10.5027 5.58916 9.42997 5.58916C8.35724 5.58916 7.43079 5.97924 6.65063 6.75941C5.90297 7.50707 5.52914 8.41726 5.52914 9.48999C5.52914 10.5627 5.90297 11.4892 6.65063 12.2693Z" fill="white"/>
</svg>
