<svg width="56" height="56" viewBox="0 0 56 56" fill="none" xmlns="http://www.w3.org/2000/svg">
<g clip-path="url(#clip0_65_6249)">
<path fill-rule="evenodd" clip-rule="evenodd" d="M7.4499 24.9863V49.4642H53.1007V24.9863H7.4499ZM11.7254 13.6636C12.268 13.6636 12.7082 13.2202 12.7082 12.6776V8.9447C12.7082 8.47653 12.3207 8.03007 11.8494 7.96806C11.8432 7.96806 11.8339 7.96806 11.8246 7.96806C11.8184 7.96496 11.8091 7.96496 11.7998 7.96496C11.7936 7.96496 11.7843 7.96186 11.775 7.96186C11.7688 7.96186 11.7595 7.96186 11.7502 7.96186C11.7409 7.96186 11.7347 7.96186 11.7254 7.96186H8.97531V6.19462L11.7254 6.19772C12.268 6.19772 12.7082 5.75435 12.7082 5.21178C12.7082 4.6692 12.268 4.22894 11.7254 4.22894H10.8418V4.05222C10.8418 3.50964 10.4015 3.06938 9.85893 3.06938C9.31636 3.06938 8.87609 3.50964 8.87609 4.05222V4.22894H7.99247C7.4499 4.22894 7.00963 4.6692 7.00963 5.21178V8.9447C7.00963 9.48727 7.4499 9.93064 7.99247 9.93064H10.7426V11.6948H7.99247C7.4499 11.6948 7.00963 12.135 7.00963 12.6776C7.00963 13.2202 7.4499 13.6636 7.99247 13.6636H8.87609V13.8372C8.87609 14.3829 9.31636 14.8231 9.85893 14.8231C10.4015 14.8231 10.8418 14.3829 10.8418 13.8372V13.6636H11.7254ZM46.6735 47.4304H13.8771C13.3345 47.4304 12.8943 46.9901 12.8943 46.4475C12.8943 45.1081 11.806 44.0199 10.4666 44.0199C9.92404 44.0199 9.48378 43.5796 9.48378 43.037V31.4135C9.48378 30.871 9.92404 30.4276 10.4666 30.4276C11.806 30.4276 12.8943 29.3393 12.8943 28.0031C12.8943 27.4574 13.3345 27.0171 13.8771 27.0171H46.6735C47.216 27.0171 47.6563 27.4574 47.6563 28.0031C47.6563 29.3393 48.7445 30.4276 50.0839 30.4276C50.6265 30.4276 51.0668 30.871 51.0668 31.4135V43.037C51.0668 43.5796 50.6265 44.0199 50.0839 44.0199C48.7445 44.0199 47.6563 45.1081 47.6563 46.4475C47.6563 46.9901 47.216 47.4304 46.6735 47.4304ZM14.7514 45.4647H45.7991C46.1743 43.8277 47.4641 42.5379 49.1011 42.1627V32.2848C47.4641 31.9096 46.1743 30.6198 45.7991 28.9859H14.7514C14.3763 30.6198 13.0865 31.9096 11.4495 32.2848V42.1627C13.0865 42.5379 14.3763 43.8277 14.7514 45.4647ZM39.0991 23.0176V13.4837H35.4158C34.5942 13.4837 34.1322 12.5195 34.6531 11.8808L43.9854 0.381305C44.3729 -0.0961613 45.1263 -0.0961613 45.5139 0.381305L54.8121 11.8374C55.3578 12.4699 54.9733 13.4837 54.0835 13.4837H50.4002V23.0176H54.0835C54.6261 23.0176 55.0663 23.4578 55.0663 24.0004V50.4471C55.0663 50.9897 54.6261 51.4299 54.0835 51.4299H50.5149V54.9985C50.5149 55.5442 50.0746 55.9845 49.5321 55.9845H1.91562C1.36995 55.9845 0.929688 55.5442 0.929688 54.9985V28.5549C0.929688 28.0093 1.36995 27.569 1.91562 27.569H5.48112V24.0004C5.48112 23.4578 5.92138 23.0176 6.46706 23.0176H21.653V16.6245H19.2439C18.4223 16.6245 17.9635 15.6571 18.4812 15.0184L25.2681 6.65658C25.6556 6.17911 26.409 6.17911 26.7966 6.65658L33.5462 14.975C34.0919 15.6075 33.7075 16.6245 32.8176 16.6245H30.4086V23.0176H39.0991ZM48.5492 51.4299H6.46706C5.91828 51.4299 5.48112 50.9866 5.48112 50.4471V29.5378H2.89846V54.0157H48.5492V51.4299ZM23.6217 23.0176H28.4398V15.6385C28.4398 15.096 28.8801 14.6557 29.4258 14.6557H30.7527L26.0308 8.83928L21.3088 14.6557H22.6389C23.1815 14.6557 23.6217 15.096 23.6217 15.6385V23.0176ZM30.2753 43.6168C26.7501 43.6168 23.8853 40.7489 23.8853 37.2237C23.8853 33.7016 26.7501 30.8337 30.2753 30.8337C33.7974 30.8337 36.6653 33.7016 36.6653 37.2237C36.6653 40.7489 33.7974 43.6168 30.2753 43.6168ZM30.2753 32.8025C27.8352 32.8025 25.851 34.7868 25.851 37.2237C25.851 39.6638 27.8352 41.6481 30.2753 41.6481C32.7153 41.6481 34.6996 39.6638 34.6996 37.2237C34.6996 34.7868 32.7153 32.8025 30.2753 32.8025ZM20.9709 38.2097H14.894C14.3515 38.2097 13.9112 37.7694 13.9112 37.2237C13.9112 36.6812 14.3515 36.2409 14.894 36.2409H20.9709C21.5135 36.2409 21.9537 36.6812 21.9537 37.2237C21.9537 37.7694 21.5135 38.2097 20.9709 38.2097ZM45.6565 38.2097H39.5797C39.0371 38.2097 38.5968 37.7694 38.5968 37.2237C38.5968 36.6812 39.0371 36.2409 39.5797 36.2409H45.6565C46.1991 36.2409 46.6394 36.6812 46.6394 37.2237C46.6394 37.7694 46.1991 38.2097 45.6565 38.2097ZM9.85893 17.8739C4.93545 17.8739 0.929688 13.8682 0.929688 8.9447C0.929688 4.02121 4.93545 0.0185547 9.85893 0.0185547C14.7824 0.0185547 18.7882 4.02121 18.7882 8.9447C18.7882 13.8682 14.7824 17.8739 9.85893 17.8739ZM9.85893 1.98423C6.0206 1.98423 2.89846 5.10636 2.89846 8.9447C2.89846 12.783 6.0206 15.9052 9.85893 15.9052C13.6973 15.9052 16.8194 12.783 16.8194 8.9447C16.8194 5.10636 13.6973 1.98423 9.85893 1.98423ZM41.0679 23.0176H48.4345V12.5009C48.4345 11.9583 48.8748 11.5181 49.4173 11.5181H52.0186L44.7512 2.56091L37.4807 11.5181H40.0819C40.6276 11.5181 41.0679 11.9583 41.0679 12.5009V23.0176Z" fill="#002868"/>
</g>
<defs>
<clipPath id="clip0_65_6249">
<rect width="56" height="56" fill="white"/>
</clipPath>
</defs>
</svg>
