<svg width="56" height="56" viewBox="0 0 56 56" fill="none" xmlns="http://www.w3.org/2000/svg">
<path d="M13.632 24.85C7.74591 24.85 2.95703 20.0568 2.95703 14.1663C2.95703 12.733 3.23353 11.3496 3.77778 10.0555C5.44378 6.07425 9.31128 3.5 13.632 3.5C14.0127 3.5 14.374 3.51925 14.745 3.55688C16.6009 3.74063 18.3842 4.42838 19.8997 5.54225C21.7328 6.867 23.1214 8.78675 23.803 10.9445C23.9352 11.3636 23.7365 11.8151 23.3393 12.0006C21.9944 12.6298 20.7755 13.5643 19.8139 14.7035C18.6878 16.0248 17.9099 17.626 17.5617 19.3357C17.4287 20.0182 17.3604 20.7104 17.3604 21.3832C17.3604 22.0264 17.4225 22.6774 17.5459 23.3179C17.629 23.7493 17.3797 24.1745 16.9632 24.3136C16.3647 24.5131 15.7338 24.6584 15.0872 24.745C14.5954 24.8141 14.1037 24.85 13.632 24.85ZM13.632 5.25C10.02 5.25 6.78516 7.40162 5.39216 10.7327C4.93716 11.8134 4.70703 12.9675 4.70703 14.1663C4.70703 19.0925 8.71103 23.1 13.632 23.1C14.0232 23.1 14.4327 23.0702 14.85 23.0125C15.1397 22.974 15.424 22.9215 15.7014 22.8559C15.641 22.3659 15.6104 21.8741 15.6104 21.385C15.6104 20.6001 15.6892 19.796 15.8458 18.9954C16.2553 16.989 17.1653 15.1156 18.4795 13.573C19.428 12.4486 20.5944 11.494 21.8842 10.7809C21.2585 9.26188 20.2068 7.92225 18.8698 6.95713C17.601 6.02438 16.117 5.45212 14.57 5.29812C14.2559 5.26575 13.9523 5.25 13.6329 5.25H13.632Z" fill="#002868"/>
<path d="M11.0438 19.5492C10.2992 19.5492 9.63069 19.1135 9.33056 18.4283L8.76094 17.1246L7.53069 16.282C7.08094 15.9827 6.78344 15.5032 6.71256 14.9668L6.38444 12.4451C6.38006 12.4075 6.35644 12.3733 6.32319 12.355L4.16194 11.1641C3.76994 10.948 3.60456 10.472 3.77694 10.0598C5.44469 6.07596 9.31306 3.50171 13.6338 3.50171C14.0109 3.50171 14.3776 3.52096 14.7442 3.55946C15.0688 3.59358 15.3471 3.80533 15.4669 4.10896C15.5859 4.41258 15.5264 4.75733 15.3129 5.00321L11.9503 8.86721C11.9302 8.89083 11.9197 8.92058 11.9206 8.95208L12.0387 11.9691C12.0404 12.0032 12.0562 12.0347 12.0816 12.0566L13.3958 13.1635C13.9978 13.6718 14.2183 14.5083 13.9444 15.246L12.7991 18.3295C12.5322 19.0478 11.8646 19.5265 11.0981 19.5483C11.0797 19.5483 11.0613 19.5492 11.0438 19.5492ZM5.72381 10.0257L7.16669 10.8211C7.68644 11.1072 8.04256 11.6296 8.11956 12.2185L8.44769 14.7402C8.45206 14.7752 8.47131 14.8058 8.50019 14.8251L9.68669 15.6161C9.98419 15.8138 10.2187 16.093 10.3631 16.4228L10.9327 17.7266C10.9441 17.7502 10.9589 17.7975 11.0473 17.7992C11.1287 17.7966 11.1479 17.745 11.1567 17.7205L12.3021 14.637C12.3204 14.5888 12.3056 14.5346 12.2662 14.5022L10.9528 13.3962C10.5512 13.0585 10.3088 12.5632 10.2878 12.0382L10.1697 9.02033C10.1513 8.54171 10.3141 8.07971 10.6273 7.71921L12.7361 5.29633C9.74969 5.59383 7.11856 7.36571 5.72206 10.0275L5.72381 10.0257Z" fill="#002868"/>
<path d="M19.144 15.015C18.9357 15.015 18.7336 14.9407 18.5744 14.8042C18.1596 14.4481 17.8927 13.958 17.8219 13.4234L17.6635 12.1573C17.6495 12.0488 17.5935 11.9508 17.506 11.8834L16.722 11.2666C16.2425 10.8859 15.9441 10.3224 15.9004 9.71867C15.8557 9.1158 16.0692 8.51555 16.4849 8.0728L18.7406 5.6508C19.0407 5.32792 19.5342 5.27805 19.893 5.53792C21.7322 6.86705 23.1209 8.7868 23.8025 10.9446C23.9346 11.3637 23.736 11.8152 23.3387 12.0007C21.9939 12.6298 20.775 13.5643 19.8134 14.7036C19.6629 14.8821 19.4476 14.9932 19.2149 15.0116C19.1912 15.0133 19.1676 15.0142 19.1449 15.0142L19.144 15.015ZM19.4712 7.43405L17.7632 9.26805C17.6486 9.39055 17.6399 9.52268 17.6451 9.59092C17.6504 9.66005 17.6784 9.7913 17.807 9.89367L18.5831 10.5035C19.0337 10.8518 19.326 11.3628 19.4004 11.9368L19.4739 12.5283C20.2027 11.8502 21.0147 11.2604 21.8827 10.78C21.3542 9.49817 20.5221 8.34317 19.4712 7.43317V7.43405Z" fill="#002868"/>
<path d="M14.9707 24.7537C14.7598 24.7537 14.5551 24.6776 14.3941 24.5367C14.2042 24.3705 14.0957 24.1307 14.0957 23.8787V21.245C14.0957 20.4408 14.4877 19.6813 15.1448 19.2115L16.1896 18.4537C16.4801 18.2437 16.8712 18.2323 17.174 18.424C17.4776 18.6173 17.6307 18.9761 17.5625 19.3296C17.4286 20.02 17.3603 20.7112 17.3603 21.385C17.3603 22.0281 17.4225 22.6791 17.5458 23.3196C17.629 23.751 17.3796 24.1762 16.9631 24.3153C16.3646 24.5148 15.7337 24.6601 15.0871 24.7467C15.0486 24.752 15.0092 24.7537 14.9707 24.7537Z" fill="#002868"/>
<path d="M13.4475 52.5H10.3535C8.42327 52.5 6.85352 50.9303 6.85352 49V38.3522C6.85352 37.8692 7.24552 37.4772 7.72852 37.4772H16.0725C16.5555 37.4772 16.9475 37.8692 16.9475 38.3522V49C16.9475 50.9303 15.3778 52.5 13.4475 52.5ZM8.60352 39.2272V49C8.60352 49.9652 9.38839 50.75 10.3535 50.75H13.4475C14.4126 50.75 15.1975 49.9652 15.1975 49V39.2272H8.60352Z" fill="#002868"/>
<path d="M7.72888 47.867H5.6595C4.46863 47.867 3.5 46.8983 3.5 45.7075V41.4891C3.5 40.2982 4.46863 39.3296 5.6595 39.3296H7.72888C8.21188 39.3296 8.60388 39.7216 8.60388 40.2046V46.9911C8.60388 47.4741 8.21188 47.8661 7.72888 47.8661V47.867ZM5.6595 41.0805C5.43375 41.0805 5.25 41.2642 5.25 41.49V45.7083C5.25 45.9341 5.43375 46.1178 5.6595 46.1178H6.85388V41.0813L5.6595 41.0805Z" fill="#002868"/>
<path d="M16.4019 52.5H4.375C3.892 52.5 3.5 52.108 3.5 51.625C3.5 51.142 3.892 50.75 4.375 50.75H16.401C16.884 50.75 17.276 51.142 17.276 51.625C17.276 52.108 16.884 52.5 16.401 52.5H16.4019Z" fill="#002868"/>
<path d="M15.8357 35.4279C15.6625 35.4279 15.4883 35.3763 15.3352 35.2695C14.9388 34.993 14.8435 34.447 15.12 34.0506C16.9995 31.3635 20.0768 29.7596 23.352 29.7596H34.0795C36.2503 29.7596 38.3188 30.4456 40.061 31.7433C40.4477 32.032 40.5282 32.5798 40.2395 32.9674C39.9507 33.3541 39.4038 33.4364 39.0153 33.1459C37.5777 32.0749 35.8715 31.5088 34.0795 31.5088H23.352C20.6473 31.5088 18.1055 32.8335 16.5532 35.0525C16.3835 35.2958 16.1113 35.4261 15.8357 35.4261V35.4279Z" fill="#002868"/>
<path d="M28.7133 31.5131C23.4773 31.5131 19.2178 27.2536 19.2178 22.0176C19.2178 16.7816 23.4773 12.5221 28.7133 12.5221C33.9493 12.5221 38.2088 16.7816 38.2088 22.0176C38.2088 27.2536 33.9493 31.5131 28.7133 31.5131ZM28.7133 14.2721C24.4424 14.2721 20.9678 17.7467 20.9678 22.0176C20.9678 26.2885 24.4424 29.7631 28.7133 29.7631C32.9841 29.7631 36.4588 26.2885 36.4588 22.0176C36.4588 17.7467 32.9841 14.2721 28.7133 14.2721Z" fill="#002868"/>
<path d="M49.6692 52.4999H29.9826C29.7017 52.4999 29.4383 52.3652 29.273 52.1377C29.1085 51.9102 29.0638 51.6171 29.1513 51.3502L33.9096 36.9494C34.2648 35.8723 35.2676 35.1487 36.4025 35.1487H52.4027C53.2558 35.1487 54.0311 35.5451 54.5307 36.2363C55.0303 36.9276 55.1633 37.7877 54.8956 38.5971L50.4996 51.8997C50.3815 52.2576 50.0463 52.4999 49.6692 52.4999ZM31.1936 50.7499H49.0375L53.2357 38.0476C53.325 37.7781 53.2803 37.4911 53.1132 37.2609C52.9478 37.0299 52.6888 36.8978 52.4036 36.8978H36.4033C36.0245 36.8978 35.6911 37.1384 35.5721 37.4981L31.1936 50.7499Z" fill="#002868"/>
<path d="M42.3482 46.2769C41.6193 46.2769 40.9675 45.9873 40.5107 45.4606C40.0575 44.9373 39.858 44.2224 39.963 43.5014C40.1668 42.0848 41.44 40.9762 42.861 40.9762C43.589 40.9762 44.2408 41.2658 44.6967 41.7917C45.1508 42.3158 45.3503 43.0298 45.2453 43.7517C45.0423 45.1674 43.7692 46.2769 42.3482 46.2769ZM42.861 42.7262C42.3193 42.7262 41.7742 43.2057 41.6946 43.7517C41.6631 43.9739 41.713 44.1743 41.8346 44.3152C41.9545 44.4534 42.1321 44.5269 42.3482 44.5269C42.8898 44.5269 43.435 44.0483 43.5128 43.5023C43.5452 43.2792 43.4953 43.0788 43.3737 42.9371C43.2538 42.7988 43.0771 42.7262 42.861 42.7262Z" fill="#002868"/>
<path d="M29.9837 52.5H21.7324C21.2494 52.5 20.8574 52.108 20.8574 51.625C20.8574 51.142 21.2494 50.75 21.7324 50.75H29.9837C30.4675 50.75 30.8587 51.142 30.8587 51.625C30.8587 52.108 30.4675 52.5 29.9837 52.5Z" fill="#002868"/>
<path d="M27.9997 48.4618H19.8692C19.5997 48.4618 19.3442 48.3376 19.1788 48.125C19.0135 47.9123 18.9548 47.6341 19.0205 47.3733L20.8825 39.991C21.0006 39.522 21.4792 39.2393 21.9447 39.3566C22.4137 39.4747 22.6972 39.9507 22.5791 40.4188L20.9918 46.7118H27.9988C28.4818 46.7118 28.8738 47.1038 28.8738 47.5868C28.8738 48.0698 28.4827 48.4618 27.9997 48.4618Z" fill="#002868"/>
</svg>
