<svg width="56" height="56" viewBox="0 0 56 56" fill="none" xmlns="http://www.w3.org/2000/svg">
<circle cx="28" cy="28" r="28" fill="#0054C5"/>
<path d="M18 28.4C18 25.383 18 23.8745 18.9463 22.9373C19.8925 22 21.4155 22 24.4615 22H25.5385C28.5845 22 30.1075 22 31.0537 22.9373C32 23.8745 32 25.383 32 28.4V31.6C32 34.617 32 36.1255 31.0537 37.0627C30.1075 38 28.5845 38 25.5385 38H24.4615C21.4155 38 19.8925 38 18.9463 37.0627C18 36.1255 18 34.617 18 31.6V28.4Z" stroke="white" stroke-width="1.5" stroke-linejoin="round"/>
<path d="M31.5376 32H32.4608C35.072 32 36.3776 32 37.1888 31.1799C38 30.3598 38 29.0399 38 26.4V23.6C38 20.9601 38 19.6402 37.1888 18.8201C36.3776 18 35.072 18 32.4608 18H31.5376C28.9264 18 27.6208 18 26.8096 18.8201C26.1002 19.5373 26.0112 20.6366 26 22.6667" stroke="white" stroke-width="1.5" stroke-linejoin="round"/>
<path d="M22 28H25M22 33H27" stroke="white" stroke-width="1.5" stroke-linecap="round"/>
<path d="M26.5 19L30.5 22.5" stroke="white" stroke-width="1.5" stroke-linejoin="round"/>
</svg>
