<svg width="56" height="56" viewBox="0 0 56 56" fill="none" xmlns="http://www.w3.org/2000/svg">
<circle cx="28" cy="28" r="28" fill="#0054C5"/>
<path d="M35 25V23.8182C35 22.1249 35 21.2783 34.7478 20.6021C34.3424 19.5151 33.4849 18.6576 32.3979 18.2522C31.7217 18 30.8751 18 29.1818 18C26.2186 18 24.7371 18 23.5538 18.4414C21.6514 19.1509 20.1509 20.6514 19.4414 22.5538C19 23.7371 19 25.2186 19 28.1818L19 30.7273C19 33.7966 19 35.3313 19.7978 36.3971C20.0264 36.7025 20.2975 36.9736 20.6029 37.2022C21.6687 38 23.2034 38 26.2727 38H27C28.1698 38 30.5 38 30.5 38" stroke="white" stroke-width="1.5" stroke-linecap="round" stroke-linejoin="round"/>
<path d="M27 30.3333H27.8403C28.5019 30.3333 28.8326 30.3333 29.0985 30.5076C29.3643 30.6818 29.5122 30.9956 29.8081 31.6232L31.4 35L33.6 28L35.1919 31.3768C35.4878 32.0044 35.6357 32.3182 35.9015 32.4924C36.1674 32.6667 36.4981 32.6667 37.1597 32.6667H38" stroke="white" stroke-width="1.5" stroke-linecap="round" stroke-linejoin="round"/>
<path d="M19 28C19 26.1591 20.4924 24.6667 22.3333 24.6667H23.4444C23.9611 24.6667 24.2194 24.6667 24.4314 24.6099C25.0065 24.4558 25.4558 24.0065 25.6099 23.4314C25.6667 23.2194 25.6667 22.9611 25.6667 22.4444V21.3333C25.6667 19.4924 27.1591 18 29 18" stroke="white" stroke-width="1.5" stroke-linecap="round" stroke-linejoin="round"/>
</svg>
