<svg width="56" height="56" viewBox="0 0 56 56" fill="none" xmlns="http://www.w3.org/2000/svg">
<circle cx="28" cy="28" r="28" fill="#0054C5"/>
<path d="M25 21.0265C23.4235 20.6031 20.6521 19.4602 19.1616 20.3012C17.6128 21.1753 17.6128 26.8248 19.1616 27.6988C20.6521 28.5398 23.4235 27.3969 25 26.9735" stroke="white" stroke-width="1.5" stroke-linejoin="round"/>
<path d="M31 21.0265C32.5765 20.6031 35.3479 19.4602 36.8384 20.3012C38.3872 21.1753 38.3872 26.8248 36.8384 27.6988C35.3479 28.5398 32.5765 27.3969 31 26.9735" stroke="white" stroke-width="1.5" stroke-linejoin="round"/>
<circle cx="28" cy="24" r="4" stroke="white" stroke-width="1.5" stroke-linejoin="round"/>
<path d="M25.7724 27L24.3452 33.3753C24.0138 34.8555 23.8481 35.5957 24.1845 35.8368C25.3343 36.6607 26.7588 34.0976 28 34.0976C29.13 34.0976 30.817 36.5523 31.8155 35.8368C32.1519 35.5957 31.9862 34.8555 31.6548 33.3753L30.2276 27" stroke="white" stroke-width="1.5" stroke-linejoin="round"/>
</svg>
