<svg width="25" height="24" viewBox="0 0 25 24" fill="none" xmlns="http://www.w3.org/2000/svg">
<path fill-rule="evenodd" clip-rule="evenodd" d="M11.615 1.25H13.719C14.6175 1.24997 15.3667 1.24995 15.9615 1.32991C16.5893 1.41432 17.1561 1.59999 17.6115 2.05546C18.067 2.51093 18.2527 3.07773 18.3371 3.70552C18.3598 3.87459 18.3761 4.05613 18.3877 4.25003C18.977 4.25037 19.4753 4.25421 19.886 4.29599C20.3594 4.34415 20.7988 4.44886 21.1948 4.71346C21.4951 4.9141 21.7529 5.17191 21.9535 5.47218C22.2181 5.86818 22.3228 6.30755 22.371 6.78102C22.417 7.23336 22.417 7.79209 22.417 8.46168V21.25H22.667C23.0812 21.25 23.417 21.5858 23.417 22C23.417 22.4142 23.0812 22.75 22.667 22.75H2.66699C2.25278 22.75 1.91699 22.4142 1.91699 22C1.91699 21.5858 2.25278 21.25 2.66699 21.25H2.91699L2.91699 8.46166C2.91698 7.79208 2.91696 7.23335 2.96298 6.78102C3.01114 6.30755 3.11585 5.86818 3.38045 5.47218C3.58109 5.17191 3.8389 4.9141 4.13917 4.71346C4.53517 4.44886 4.97454 4.34415 5.44801 4.29599C5.85864 4.25421 6.35694 4.25037 6.94626 4.25003C6.95791 4.05613 6.97417 3.87459 6.9969 3.70552C7.08131 3.07773 7.26698 2.51093 7.72245 2.05546C8.17792 1.59999 8.74472 1.41432 9.37251 1.32991C9.96729 1.24995 10.7165 1.24997 11.615 1.25ZM6.91702 5.75011C6.33442 5.75075 5.92285 5.75542 5.59982 5.78828C5.24495 5.82438 5.08098 5.8882 4.97253 5.96067C4.83604 6.05186 4.71885 6.16905 4.62766 6.30554C4.55519 6.41399 4.49137 6.57796 4.45527 6.93283C4.4179 7.30023 4.41699 7.78216 4.41699 8.5V21.25H6.91699V14.75H6.16699C5.75278 14.75 5.41699 14.4142 5.41699 14C5.41699 13.5858 5.75278 13.25 6.16699 13.25H6.91699V11.75H6.16699C5.75278 11.75 5.41699 11.4142 5.41699 11C5.41699 10.5858 5.75278 10.25 6.16699 10.25H6.91699V8.75H6.16699C5.75278 8.75 5.41699 8.41422 5.41699 8C5.41699 7.58579 5.75278 7.25 6.16699 7.25H6.91699L6.91699 5.94801C6.91699 5.88122 6.91699 5.81525 6.91702 5.75011ZM8.41699 21.25H11.917V19C11.917 18.5858 12.2528 18.25 12.667 18.25C13.0812 18.25 13.417 18.5858 13.417 19V21.25H16.917V6C16.917 5.03599 16.9154 4.38843 16.8505 3.90539C16.7884 3.44393 16.6812 3.24644 16.5509 3.11612C16.4206 2.9858 16.2231 2.87858 15.7616 2.81654C15.2786 2.7516 14.631 2.75 13.667 2.75H11.667C10.703 2.75 10.0554 2.7516 9.57238 2.81654C9.11092 2.87858 8.91342 2.9858 8.78311 3.11612C8.65279 3.24644 8.54557 3.44393 8.48353 3.90539C8.41858 4.38843 8.41699 5.03599 8.41699 6V21.25ZM18.417 8.75H19.167C19.5812 8.75 19.917 8.41422 19.917 8C19.917 7.58579 19.5812 7.25 19.167 7.25H18.417L18.417 5.94801C18.417 5.88122 18.417 5.81525 18.417 5.75011C18.9996 5.75075 19.4111 5.75542 19.7342 5.78828C20.089 5.82438 20.253 5.8882 20.3615 5.96067C20.4979 6.05186 20.6151 6.16905 20.7063 6.30554C20.7788 6.41399 20.8426 6.57796 20.8787 6.93283C20.9161 7.30023 20.917 7.78216 20.917 8.5V21.25H18.417V14.75H19.167C19.5812 14.75 19.917 14.4142 19.917 14C19.917 13.5858 19.5812 13.25 19.167 13.25H18.417V11.75H19.167C19.5812 11.75 19.917 11.4142 19.917 11C19.917 10.5858 19.5812 10.25 19.167 10.25H18.417V8.75ZM12.667 4.25C13.0812 4.25 13.417 4.58579 13.417 5V6.25H14.667C15.0812 6.25 15.417 6.58579 15.417 7C15.417 7.41422 15.0812 7.75 14.667 7.75H13.417V9C13.417 9.41422 13.0812 9.75 12.667 9.75C12.2528 9.75 11.917 9.41422 11.917 9V7.75H10.667C10.2528 7.75 9.91699 7.41422 9.91699 7C9.91699 6.58579 10.2528 6.25 10.667 6.25H11.917V5C11.917 4.58579 12.2528 4.25 12.667 4.25ZM9.91699 12C9.91699 11.5858 10.2528 11.25 10.667 11.25H14.667C15.0812 11.25 15.417 11.5858 15.417 12C15.417 12.4142 15.0812 12.75 14.667 12.75H10.667C10.2528 12.75 9.91699 12.4142 9.91699 12ZM9.91699 15C9.91699 14.5858 10.2528 14.25 10.667 14.25H14.667C15.0812 14.25 15.417 14.5858 15.417 15C15.417 15.4142 15.0812 15.75 14.667 15.75H10.667C10.2528 15.75 9.91699 15.4142 9.91699 15Z" fill="#0054C5"/>
</svg>
