<svg width="25" height="24" viewBox="0 0 25 24" fill="none" xmlns="http://www.w3.org/2000/svg">
<path fill-rule="evenodd" clip-rule="evenodd" d="M10.1313 2.82057C11.7541 2.05981 13.5798 2.05981 15.2026 2.82057L21.8938 5.95756C22.9461 6.4509 23.417 7.52222 23.417 8.50002C23.417 9.47782 22.946 10.5491 21.8938 11.0425L20.417 11.7348V16.6254C20.417 17.8785 19.7887 19.0883 18.645 19.7217C17.8933 20.138 16.9054 20.6391 15.8658 21.038C14.8385 21.4321 13.7009 21.75 12.667 21.75C11.6331 21.75 10.4955 21.4321 9.46816 21.038C8.42858 20.6391 7.4407 20.138 6.68897 19.7217C5.54525 19.0883 4.91699 17.8785 4.91699 16.6254V11.7348L3.44023 11.0424L3.41699 11.0314V14C3.41699 14.4142 3.08121 14.75 2.66699 14.75C2.25278 14.75 1.91699 14.4142 1.91699 14V8.5C1.91699 7.5222 2.38794 6.45085 3.44023 5.95752L10.1313 2.82057ZM6.41699 12.438V16.6254C6.41699 17.3884 6.79574 18.0661 7.41568 18.4095C8.13232 18.8063 9.05377 19.2724 10.0054 19.6375C10.9693 20.0073 11.9049 20.25 12.667 20.25C13.4291 20.25 14.3647 20.0073 15.3285 19.6375C16.2802 19.2724 17.2017 18.8063 17.9183 18.4095C18.5382 18.0661 18.917 17.3884 18.917 16.6254V12.4381L15.2026 14.1794C13.5799 14.9402 11.7541 14.9402 10.1314 14.1794L6.41699 12.438ZM4.07696 9.68429C3.67378 9.49527 3.41699 9.04438 3.41699 8.49998C3.41699 7.95557 3.67378 7.50469 4.07696 7.31567L10.7681 4.17872C11.9874 3.60709 13.3465 3.60709 14.5658 4.17873L21.257 7.31571C21.6602 7.50473 21.917 7.95562 21.917 8.50002C21.917 9.04443 21.6602 9.49531 21.257 9.68433L14.5659 12.8213C13.3466 13.3929 11.9875 13.3929 10.7682 12.8213L4.07696 9.68429Z" fill="#0054C5"/>
</svg>
