<svg width="25" height="24" viewBox="0 0 25 24" fill="none" xmlns="http://www.w3.org/2000/svg">
<path fill-rule="evenodd" clip-rule="evenodd" d="M6.91699 8C6.91699 4.82436 9.49135 2.25 12.667 2.25C15.8426 2.25 18.417 4.82436 18.417 8V11C18.417 14.1756 15.8426 16.75 12.667 16.75C9.49135 16.75 6.91699 14.1756 6.91699 11V8ZM12.667 3.75C10.3198 3.75 8.41699 5.65279 8.41699 8V11C8.41699 13.3472 10.3198 15.25 12.667 15.25C14.7583 15.25 16.4968 13.7395 16.851 11.75L13.667 11.75C13.2528 11.75 12.917 11.4142 12.917 11C12.917 10.5858 13.2528 10.25 13.667 10.25L16.917 10.25V8.75H13.667C13.2528 8.75 12.917 8.41421 12.917 8C12.917 7.58579 13.2528 7.25 13.667 7.25H16.851C16.4968 5.26049 14.7583 3.75 12.667 3.75ZM4.66699 9.25C5.08121 9.25 5.41699 9.58579 5.41699 10V11C5.41699 15.0041 8.66293 18.25 12.667 18.25C16.6711 18.25 19.917 15.0041 19.917 11V10C19.917 9.58579 20.2528 9.25 20.667 9.25C21.0812 9.25 21.417 9.58579 21.417 10V11C21.417 15.5798 17.8984 19.3379 13.417 19.7183V22C13.417 22.4142 13.0812 22.75 12.667 22.75C12.2528 22.75 11.917 22.4142 11.917 22V19.7183C7.43559 19.3379 3.91699 15.5798 3.91699 11V10C3.91699 9.58579 4.25278 9.25 4.66699 9.25Z" fill="#0054C5"/>
</svg>
