<svg width="25" height="24" viewBox="0 0 25 24" fill="none" xmlns="http://www.w3.org/2000/svg">
<path fill-rule="evenodd" clip-rule="evenodd" d="M11.6106 1.25H13.7234C15.5612 1.24998 17.0168 1.24997 18.156 1.40314C19.3284 1.56076 20.2774 1.89288 21.0257 2.64124C21.3186 2.93414 21.3186 3.40901 21.0257 3.7019C20.7329 3.9948 20.258 3.9948 19.9651 3.7019C19.5419 3.27869 18.9622 3.02502 17.9561 2.88976C16.9285 2.75159 15.5738 2.75 13.667 2.75H11.667C9.76017 2.75 8.40551 2.75159 7.37784 2.88976C6.37175 3.02502 5.79211 3.27869 5.3689 3.7019C4.94569 4.12511 4.69202 4.70476 4.55675 5.71085C4.41859 6.73851 4.41699 8.09318 4.41699 10V14C4.41699 15.9068 4.41859 17.2615 4.55675 18.2892C4.69202 19.2952 4.94569 19.8749 5.3689 20.2981C5.79211 20.7213 6.37175 20.975 7.37784 21.1102C8.40551 21.2484 9.76017 21.25 11.667 21.25H13.667C15.5738 21.25 16.9285 21.2484 17.9561 21.1102C18.9622 20.975 19.5419 20.7213 19.9651 20.2981C20.661 19.6022 20.8718 18.5208 20.9084 15.9892C20.9144 15.575 21.255 15.2441 21.6691 15.2501C22.0833 15.2561 22.4142 15.5967 22.4082 16.0108C22.3731 18.4383 22.216 20.1685 21.0257 21.3588C20.2774 22.1071 19.3284 22.4392 18.156 22.5969C17.0168 22.75 15.5612 22.75 13.7234 22.75H11.6106C9.77282 22.75 8.31718 22.75 7.17797 22.5969C6.00555 22.4392 5.0566 22.1071 4.30824 21.3588C3.55987 20.6104 3.22776 19.6614 3.07013 18.489C2.91696 17.3498 2.91698 15.8942 2.91699 14.0564V9.94358C2.91698 8.10582 2.91696 6.65019 3.07013 5.51098C3.22776 4.33856 3.55987 3.38961 4.30824 2.64124C5.0566 1.89288 6.00555 1.56076 7.17797 1.40314C8.31718 1.24997 9.77282 1.24998 11.6106 1.25ZM18.7801 7.04556C19.8409 5.98481 21.5607 5.98481 22.6214 7.04556C23.6822 8.1063 23.6822 9.82611 22.6214 10.8869L17.8661 15.6422C17.6074 15.901 17.4324 16.076 17.2363 16.2289C17.0057 16.4088 16.7562 16.563 16.4921 16.6889C16.2677 16.7958 16.0329 16.8741 15.6857 16.9897L13.6021 17.6843C13.1421 17.8376 12.6349 17.7179 12.292 17.375C11.9491 17.0321 11.8294 16.5249 11.9827 16.0649L12.6633 14.0232C12.668 14.0091 12.6726 13.9951 12.6772 13.9813C12.7929 13.6342 12.8712 13.3993 12.9781 13.1748C13.104 12.9108 13.2582 12.6613 13.4381 12.4307C13.591 12.2346 13.766 12.0596 14.0248 11.8009C14.0351 11.7906 14.0455 11.7802 14.0561 11.7696L18.7801 7.04556ZM21.5608 8.10622C21.0858 7.63126 20.3158 7.63126 19.8408 8.10622L19.659 8.288C19.6689 8.32149 19.6802 8.3571 19.6932 8.39452C19.7872 8.66565 19.9657 9.02427 20.3042 9.36276C20.6427 9.70125 21.0013 9.87975 21.2725 9.97382C21.3099 9.9868 21.3455 9.99812 21.379 10.008L21.5608 9.8262C22.0357 9.35124 22.0357 8.58118 21.5608 8.10622ZM20.2334 11.1536C19.9155 10.9866 19.5723 10.7521 19.2436 10.4234C18.9149 10.0947 18.6804 9.75146 18.5134 9.43357L15.1167 12.8303C14.8157 13.1314 14.71 13.2388 14.6208 13.3532C14.5079 13.4979 14.4112 13.6545 14.3322 13.8202C14.2698 13.9511 14.2209 14.0936 14.0863 14.4976L13.686 15.6985L13.9685 15.981L15.1694 15.5807C15.5734 15.4461 15.7159 15.3972 15.8468 15.3348C16.0125 15.2558 16.1691 15.159 16.3138 15.0462C16.4282 14.957 16.5356 14.8513 16.8367 14.5503L20.2334 11.1536ZM7.91699 9C7.91699 8.58579 8.25278 8.25 8.66699 8.25H15.167C15.5812 8.25 15.917 8.58579 15.917 9C15.917 9.41421 15.5812 9.75 15.167 9.75H8.66699C8.25278 9.75 7.91699 9.41421 7.91699 9ZM7.91699 13C7.91699 12.5858 8.25278 12.25 8.66699 12.25H11.167C11.5812 12.25 11.917 12.5858 11.917 13C11.917 13.4142 11.5812 13.75 11.167 13.75H8.66699C8.25278 13.75 7.91699 13.4142 7.91699 13ZM7.91699 17C7.91699 16.5858 8.25278 16.25 8.66699 16.25H10.167C10.5812 16.25 10.917 16.5858 10.917 17C10.917 17.4142 10.5812 17.75 10.167 17.75H8.66699C8.25278 17.75 7.91699 17.4142 7.91699 17Z" fill="#0054C5"/>
</svg>
