<svg width="49" height="48" viewBox="0 0 49 48" fill="none" xmlns="http://www.w3.org/2000/svg">
<path d="M44.6666 24C44.6666 12.9543 35.7123 4 24.6666 4C13.6209 4 4.66663 12.9543 4.66663 24C4.66663 35.0457 13.6209 44 24.6666 44C35.7123 44 44.6666 35.0457 44.6666 24Z" stroke="#0054C5" stroke-width="3"/>
<path d="M40.6666 11.398C38.7972 11.5327 36.4027 12.2565 34.7424 14.4055C31.7435 18.2872 28.7447 18.6111 26.7454 17.3172C23.7465 15.3764 26.2666 12.2327 22.7469 10.5243C20.4529 9.41084 20.133 6.38091 21.4098 4" stroke="#0054C5" stroke-width="3" stroke-linejoin="round"/>
<path d="M4.66663 22C6.19162 23.3242 8.32754 24.5364 10.8441 24.5364C16.0435 24.5364 17.0834 25.5298 17.0834 29.5036C17.0834 33.4774 17.0834 33.4774 18.1232 36.4577C18.7996 38.3963 19.0361 40.3348 17.6878 42" stroke="#0054C5" stroke-width="3" stroke-linejoin="round"/>
<path d="M44.6666 26.9047C42.8924 25.8822 40.6666 25.4616 38.4134 27.081C34.102 30.1797 31.1293 27.612 29.7905 30.1779C27.8196 33.955 34.8581 35.1422 28.6666 44" stroke="#0054C5" stroke-width="3" stroke-linejoin="round"/>
</svg>
