<svg width="48" height="48" viewBox="0 0 48 48" fill="none" xmlns="http://www.w3.org/2000/svg">
<path d="M4 24.8C4 18.766 4 15.749 5.89254 13.8745C7.78508 12 10.8311 12 16.9231 12H19.0769C25.1689 12 28.2149 12 30.1075 13.8745C32 15.749 32 18.766 32 24.8V31.2C32 37.234 32 40.251 30.1075 42.1255C28.2149 44 25.1689 44 19.0769 44H16.9231C10.8311 44 7.78508 44 5.89254 42.1255C4 40.251 4 37.234 4 31.2V24.8Z" stroke="#0054C5" stroke-width="3" stroke-linejoin="round"/>
<path d="M31.0752 32H32.9216C38.144 32 40.7552 32 42.3776 30.3598C44 28.7196 44 26.0797 44 20.8V15.2C44 9.92027 44 7.2804 42.3776 5.6402C40.7552 4 38.144 4 32.9216 4H31.0752C25.8528 4 23.2416 4 21.6192 5.6402C20.2004 7.07452 20.0224 9.27328 20 13.3333" stroke="#0054C5" stroke-width="3" stroke-linejoin="round"/>
<path d="M12 24H18M12 34H22" stroke="#0054C5" stroke-width="3" stroke-linecap="round"/>
<path d="M21 6L29 13" stroke="#0054C5" stroke-width="3" stroke-linejoin="round"/>
</svg>
