<svg width="49" height="48" viewBox="0 0 49 48" fill="none" xmlns="http://www.w3.org/2000/svg">
<path d="M20.3334 17.893C20.3558 15.4399 21.3755 12.6414 23.6485 10.7458C29.3546 5.98707 42.8516 13.9121 41.9749 4C49.2943 15.2829 37.2885 15.6386 36.7638 19.6753C36.4662 21.9651 40.6515 23.2229 43.0707 21.2053C42.5823 22.9042 39.3334 29.6113 30.3334 27.6412" stroke="#0054C5" stroke-width="3" stroke-linecap="round" stroke-linejoin="round"/>
<path d="M18.2423 24.0551C15.9949 21.8077 16.354 14 16.354 14L34.3334 31.9794C34.3334 31.9794 26.5257 32.3356 24.2783 30.0882" stroke="#0054C5" stroke-width="3" stroke-linecap="round" stroke-linejoin="round"/>
<path d="M16.6298 24L4.82886 39.966C4.08445 40.9731 4.18888 42.3733 5.07445 43.2589C5.96003 44.1445 7.36024 44.2489 8.36739 43.5045L24.3334 31.7036" stroke="#0054C5" stroke-width="3" stroke-linecap="round" stroke-linejoin="round"/>
<path d="M14.3334 20L28.3334 34" stroke="#0054C5" stroke-width="3" stroke-linecap="round" stroke-linejoin="round"/>
</svg>
