<svg width="49" height="48" viewBox="0 0 49 48" fill="none" xmlns="http://www.w3.org/2000/svg">
<path fill-rule="evenodd" clip-rule="evenodd" d="M18.7459 6.36383C18.2417 6.52357 17.7437 6.70514 17.2534 6.90823C15.0088 7.83794 12.9694 9.20064 11.2515 10.9185C9.53365 12.6364 8.17095 14.6758 7.24124 16.9204C6.50341 18.7016 6.04975 20.5844 5.89392 22.5H14.8549C14.9189 20.3082 15.123 18.1482 15.4621 16.1011C15.878 13.5912 16.4924 11.2783 17.2834 9.30078C17.7153 8.22114 18.2032 7.23283 18.7459 6.36383ZM24.333 2.5C21.5096 2.5 18.7138 3.05611 16.1053 4.13659C13.4968 5.21706 11.1267 6.80074 9.13021 8.7972C7.13375 10.7937 5.55008 13.1638 4.4696 15.7723C3.38912 18.3808 2.83301 21.1766 2.83301 24C2.83301 26.8234 3.38912 29.6192 4.4696 32.2277C5.55007 34.8362 7.13375 37.2063 9.13021 39.2028C11.1267 41.1993 13.4968 42.7829 16.1053 43.8634C18.7138 44.9439 21.5096 45.5 24.333 45.5C27.1564 45.5 29.9522 44.9439 32.5607 43.8634C35.1692 42.7829 37.5393 41.1993 39.5358 39.2028C41.5323 37.2063 43.1159 34.8362 44.1964 32.2277C45.2769 29.6192 45.833 26.8234 45.833 24C45.833 21.1766 45.2769 18.3808 44.1964 15.7723C43.1159 13.1638 41.5323 10.7937 39.5358 8.79721C37.5393 6.80075 35.1692 5.21707 32.5607 4.13659C29.9522 3.05611 27.1564 2.5 24.333 2.5ZM24.333 5.5C23.8105 5.5 23.1355 5.75158 22.3506 6.56439C21.5598 7.38321 20.7682 8.66652 20.0689 10.4149C19.3741 12.1518 18.81 14.2485 18.4218 16.5915C18.1103 18.4714 17.9193 20.4663 17.8562 22.5L30.8098 22.5C30.7467 20.4663 30.5557 18.4714 30.2442 16.5915C29.856 14.2485 29.2919 12.1518 28.5971 10.415C27.8978 8.66652 27.1062 7.38321 26.3155 6.5644C25.5305 5.75158 24.8555 5.5 24.333 5.5ZM33.8111 22.5C33.7471 20.3082 33.543 18.1482 33.2039 16.1011C32.788 13.5912 32.1736 11.2783 31.3826 9.30078C30.9507 8.22114 30.4628 7.23283 29.9201 6.36383C30.4243 6.52357 30.9223 6.70514 31.4127 6.90823C33.6572 7.83794 35.6966 9.20064 37.4145 10.9185C39.1324 12.6364 40.4951 14.6758 41.4248 16.9204C42.1626 18.7016 42.6163 20.5844 42.7721 22.5H33.8111ZM30.8098 25.5L17.8562 25.5C17.9193 27.5337 18.1103 29.5286 18.4218 31.4085C18.81 33.7515 19.3741 35.8482 20.0689 37.585C20.7682 39.3335 21.5598 40.6168 22.3506 41.4356C23.1355 42.2484 23.8105 42.5 24.333 42.5C24.8555 42.5 25.5305 42.2484 26.3155 41.4356C27.1062 40.6168 27.8978 39.3335 28.5971 37.585C29.2919 35.8482 29.856 33.7515 30.2442 31.4085C30.5557 29.5286 30.7467 27.5337 30.8098 25.5ZM29.9201 41.6362C30.4628 40.7672 30.9507 39.7789 31.3826 38.6992C32.1736 36.7217 32.788 34.4088 33.2039 31.8989C33.543 29.8518 33.7471 27.6918 33.8111 25.5H42.7721C42.6163 27.4156 42.1626 29.2984 41.4248 31.0796C40.4951 33.3242 39.1324 35.3636 37.4145 37.0815C35.6966 38.7994 33.6572 40.1621 31.4127 41.0918C30.9223 41.2949 30.4243 41.4764 29.9201 41.6362ZM18.7459 41.6362C18.2032 40.7672 17.7153 39.7789 17.2834 38.6992C16.4924 36.7217 15.878 34.4088 15.4621 31.8989C15.123 29.8518 14.9189 27.6918 14.8549 25.5H5.89392C6.04975 27.4156 6.50341 29.2984 7.24124 31.0796C8.17095 33.3242 9.53365 35.3636 11.2515 37.0815C12.9694 38.7994 15.0088 40.1621 17.2534 41.0918C17.7437 41.2949 18.2417 41.4764 18.7459 41.6362Z" fill="#0054C5"/>
</svg>
