<svg width="49" height="48" viewBox="0 0 49 48" fill="none" xmlns="http://www.w3.org/2000/svg">
<path fill-rule="evenodd" clip-rule="evenodd" d="M24.667 2.5C25.4954 2.5 26.167 3.17157 26.167 4V6.07307L36.2903 11.1346C37.7591 11.8689 39.0112 12.4949 39.8825 13.103C40.766 13.7196 41.6948 14.615 41.6948 16C41.6948 17.385 40.766 18.2804 39.8825 18.897C39.0112 19.5051 37.7591 20.1311 36.2903 20.8654L26.167 25.9269V28.5189C31.2256 28.6469 35.8285 29.4178 39.3047 30.6345C41.2062 31.3 42.8519 32.1269 44.0516 33.1196C45.2417 34.1045 46.167 35.4081 46.167 37C46.167 38.5919 45.2417 39.8955 44.0516 40.8804C42.8519 41.8731 41.2062 42.7 39.3047 43.3655C35.4878 44.7014 30.3125 45.5 24.667 45.5C19.0215 45.5 13.8462 44.7014 10.0293 43.3655C8.12781 42.7 6.48208 41.8731 5.2824 40.8804C4.09227 39.8955 3.16699 38.5919 3.16699 37C3.16699 35.4081 4.09227 34.1045 5.2824 33.1196C6.48208 32.1269 8.12781 31.3 10.0293 30.6345C13.5055 29.4178 18.1083 28.6469 23.167 28.5189V25.0432C23.1662 25.0151 23.1662 24.9871 23.167 24.9591V7.04089C23.1662 7.01292 23.1662 6.98488 23.167 6.9568V4C23.167 3.17157 23.8386 2.5 24.667 2.5ZM26.167 9.42717V22.5728L34.8406 18.2361C36.4474 17.4327 37.4969 16.9035 38.1655 16.4369C38.4818 16.2162 38.6181 16.0739 38.6736 16C38.6181 15.9261 38.4818 15.7838 38.1655 15.5631C37.4969 15.0965 36.4474 14.5673 34.8406 13.7639L26.167 9.42717ZM38.708 16.0614C38.7065 16.0613 38.7016 16.0529 38.6983 16.0367C38.7079 16.0535 38.7096 16.0616 38.708 16.0614ZM38.6983 15.9633C38.7016 15.9471 38.7065 15.9387 38.708 15.9386C38.7096 15.9384 38.7079 15.9465 38.6983 15.9633ZM23.167 31.5199C18.3762 31.6476 14.1219 32.3805 11.0204 33.466C9.30261 34.0673 8.01942 34.7487 7.19498 35.4309C6.361 36.121 6.16699 36.6589 6.16699 37C6.16699 37.3411 6.361 37.879 7.19498 38.5691C8.01942 39.2513 9.30261 39.9327 11.0204 40.534C14.4421 41.7315 19.2668 42.5 24.667 42.5C30.0672 42.5 34.8919 41.7315 38.3136 40.534C40.0314 39.9327 41.3146 39.2513 42.139 38.5691C42.973 37.879 43.167 37.3411 43.167 37C43.167 36.6589 42.973 36.121 42.139 35.4309C41.3146 34.7487 40.0314 34.0673 38.3136 33.466C35.2121 32.3805 30.9577 31.6476 26.167 31.5199V36C26.167 36.8284 25.4954 37.5 24.667 37.5C23.8386 37.5 23.167 36.8284 23.167 36V31.5199Z" fill="#0054C5"/>
</svg>
