<svg width="49" height="48" viewBox="0 0 49 48" fill="none" xmlns="http://www.w3.org/2000/svg">
<path fill-rule="evenodd" clip-rule="evenodd" d="M16.2233 8.5H26.4428C29.1779 8.49996 31.3826 8.49993 33.1165 8.73305C34.9167 8.97508 36.4325 9.49287 37.6363 10.6967C38.7452 11.8055 39.2719 13.179 39.5373 14.7957C41.1542 15.0609 42.5278 15.5878 43.6368 16.6968C44.8407 17.9006 45.3584 19.4164 45.6005 21.2166C45.8336 22.9505 45.8336 25.1552 45.8335 27.8904V28.1098C45.8336 30.845 45.8336 33.0497 45.6005 34.7836C45.3584 36.5838 44.8407 38.0996 43.6368 39.3034C42.433 40.5072 40.9172 41.025 39.117 41.2671C37.3831 41.5002 35.1784 41.5001 32.4433 41.5001H22.2238C19.4886 41.5001 17.284 41.5002 15.55 41.2671C13.7498 41.025 12.2341 40.5072 11.0302 39.3034C9.92135 38.1945 9.39445 36.821 9.12915 35.2044C7.51229 34.939 6.13866 34.4123 5.02971 33.3033C3.82588 32.0995 3.30809 30.5837 3.06606 28.7835C2.83293 27.0496 2.83297 24.8449 2.83301 22.1098V21.8903C2.83297 19.1551 2.83293 16.9504 3.06606 15.2165C3.30809 13.4163 3.82588 11.9005 5.02971 10.6967C6.23354 9.49287 7.74929 8.97508 9.54951 8.73305C11.2834 8.49993 13.4881 8.49996 16.2233 8.5ZM12.2444 35.4633C12.4542 36.269 12.753 36.7835 13.1515 37.1821C13.7051 37.7356 14.4822 38.0965 15.9498 38.2938C17.4605 38.4969 19.4627 38.5001 22.3335 38.5001H32.3335C35.2043 38.5001 37.2066 38.4969 38.7173 38.2938C40.1848 38.0965 40.962 37.7356 41.5155 37.1821C42.069 36.6286 42.4299 35.8514 42.6272 34.3839C42.8303 32.8732 42.8335 30.8709 42.8335 28.0001C42.8335 25.1293 42.8303 23.127 42.6272 21.6163C42.4299 20.1488 42.069 19.3717 41.5155 18.8181C41.1169 18.4195 40.6022 18.1207 39.7963 17.9109C39.8331 19.0887 39.833 20.412 39.833 21.8903V22.1097C39.8331 24.8449 39.8331 27.0496 39.6 28.7835C39.3579 30.5837 38.8401 32.0995 37.6363 33.3033C36.4325 34.5071 34.9167 35.0249 33.1165 35.267C31.3826 35.5001 29.1779 35.5 26.4427 35.5H16.2233C14.7452 35.5 13.4221 35.5 12.2444 35.4633ZM9.94925 11.7063C8.4817 11.9036 7.70456 12.2645 7.15103 12.818C6.5975 13.3715 6.23661 14.1487 6.0393 15.6162C5.8362 17.1269 5.83301 19.1292 5.83301 22C5.83301 24.8708 5.8362 26.8731 6.0393 28.3838C6.23661 29.8513 6.5975 30.6285 7.15103 31.182C7.70456 31.7355 8.4817 32.0964 9.94925 32.2937C11.46 32.4968 13.4622 32.5 16.333 32.5H26.333C29.2038 32.5 31.2061 32.4968 32.7168 32.2937C34.1843 32.0964 34.9615 31.7355 35.515 31.182C36.0685 30.6285 36.4294 29.8513 36.6267 28.3838C36.8298 26.8731 36.833 24.8708 36.833 22C36.833 19.1292 36.8298 17.1269 36.6267 15.6162C36.4294 14.1487 36.0685 13.3715 35.515 12.818C34.9615 12.2645 34.1843 11.9036 32.7168 11.7063C31.2061 11.5032 29.2038 11.5 26.333 11.5H16.333C13.4622 11.5 11.46 11.5032 9.94925 11.7063ZM21.333 18.5C19.4 18.5 17.833 20.067 17.833 22C17.833 23.933 19.4 25.5 21.333 25.5C23.266 25.5 24.833 23.933 24.833 22C24.833 20.067 23.266 18.5 21.333 18.5ZM14.833 22C14.833 18.4102 17.7432 15.5 21.333 15.5C24.9229 15.5 27.833 18.4102 27.833 22C27.833 25.5899 24.9229 28.5 21.333 28.5C17.7432 28.5 14.833 25.5899 14.833 22ZM10.333 16.5C11.1614 16.5 11.833 17.1716 11.833 18V26C11.833 26.8284 11.1614 27.5 10.333 27.5C9.50458 27.5 8.83301 26.8284 8.83301 26L8.83301 18C8.83301 17.1716 9.50458 16.5 10.333 16.5ZM32.333 16.5C33.1614 16.5 33.833 17.1716 33.833 18V26C33.833 26.8284 33.1614 27.5 32.333 27.5C31.5046 27.5 30.833 26.8284 30.833 26V18C30.833 17.1716 31.5046 16.5 32.333 16.5Z" fill="#0054C5"/>
</svg>
