<svg width="48" height="48" viewBox="0 0 48 48" fill="none" xmlns="http://www.w3.org/2000/svg">
<path fill-rule="evenodd" clip-rule="evenodd" d="M18.9282 30.5C20.5231 28.8007 21.5 26.5144 21.5 24C21.5 18.7533 17.2467 14.5 12 14.5C6.75329 14.5 2.5 18.7533 2.5 24C2.5 29.2467 6.75329 33.5 12 33.5H36C41.2467 33.5 45.5 29.2467 45.5 24C45.5 18.7533 41.2467 14.5 36 14.5C30.7533 14.5 26.5 18.7533 26.5 24C26.5 26.5144 27.4769 28.8007 29.0718 30.5H18.9282ZM12 17.5C8.41015 17.5 5.5 20.4101 5.5 24C5.5 27.5899 8.41015 30.5 12 30.5C15.5899 30.5 18.5 27.5899 18.5 24C18.5 20.4101 15.5899 17.5 12 17.5ZM36 30.5C39.5899 30.5 42.5 27.5899 42.5 24C42.5 20.4101 39.5899 17.5 36 17.5C32.4101 17.5 29.5 20.4101 29.5 24C29.5 27.5899 32.4101 30.5 36 30.5Z" fill="#0054C5"/>
</svg>
