<svg width="32" height="32" viewBox="0 0 32 32" fill="none" xmlns="http://www.w3.org/2000/svg">
<path fill-rule="evenodd" clip-rule="evenodd" d="M14.5938 1.6665H17.4068C19.2303 1.66648 20.7 1.66645 21.856 1.82187C23.0561 1.98322 24.0666 2.32842 24.8692 3.13097C25.2671 3.52893 25.5527 3.97802 25.759 4.476C27.0018 4.63168 28.0451 4.97362 28.8692 5.79771C29.6717 6.60026 30.0169 7.61076 30.1783 8.81091C30.3337 9.96686 30.3337 11.4366 30.3337 13.2601V18.7397C30.3337 20.5632 30.3337 22.033 30.1783 23.1889C30.0169 24.3891 29.6717 25.3996 28.8692 26.2021C28.0451 27.0262 27.0017 27.3681 25.759 27.5238C25.5526 28.0217 25.2671 28.4708 24.8692 28.8687C24.0666 29.6713 23.0561 30.0165 21.856 30.1778C20.7 30.3332 19.2303 30.3332 17.4068 30.3332H14.5938C12.7704 30.3332 11.3006 30.3332 10.1447 30.1778C8.94451 30.0165 7.93401 29.6713 7.13146 28.8687C6.73354 28.4708 6.44806 28.0217 6.24167 27.5238C4.99892 27.3681 3.95556 27.0262 3.13146 26.2021C2.3289 25.3996 1.98371 24.3891 1.82236 23.1889C1.66694 22.033 1.66697 20.5632 1.66699 18.7397V13.2601C1.66697 11.4366 1.66694 9.96686 1.82236 8.81091C1.98371 7.61076 2.3289 6.60026 3.13146 5.79771C3.95555 4.97362 4.99889 4.63168 6.24161 4.476C6.448 3.97801 6.7335 3.52893 7.13146 3.13097C7.93401 2.32842 8.94451 1.98322 10.1447 1.82187C11.3006 1.66645 12.7704 1.66648 14.5938 1.6665ZM5.77157 6.58713C5.18809 6.72775 4.82433 6.93326 4.54567 7.21192C4.17666 7.58094 3.93606 8.09903 3.80452 9.0774C3.66912 10.0845 3.66699 11.4194 3.66699 13.3332V18.6666C3.66699 20.5805 3.66912 21.9153 3.80452 22.9224C3.93606 23.9008 4.17666 24.4189 4.54567 24.7879C4.82433 25.0666 5.18809 25.2721 5.77159 25.4127C5.66695 24.331 5.66697 23.0045 5.66699 21.4063V10.5933C5.66697 8.9952 5.66695 7.66875 5.77157 6.58713ZM26.2291 25.4127C26.8126 25.2721 27.1763 25.0666 27.455 24.7879C27.824 24.4189 28.0646 23.9008 28.1961 22.9224C28.3315 21.9153 28.3337 20.5805 28.3337 18.6666V13.3332C28.3337 11.4194 28.3315 10.0845 28.1961 9.0774C28.0646 8.09903 27.824 7.58094 27.455 7.21192C27.1763 6.93326 26.8126 6.72775 26.2291 6.58714C26.3337 7.66876 26.3337 8.99521 26.3337 10.5933V21.4063C26.3337 23.0045 26.3337 24.331 26.2291 25.4127ZM10.4112 3.80403C9.43279 3.93557 8.91469 4.17617 8.54567 4.54518C8.17666 4.9142 7.93606 5.4323 7.80452 6.41067C7.66912 7.4178 7.66699 8.75262 7.66699 10.6665V21.3332C7.66699 23.2471 7.66912 24.5819 7.80452 25.589C7.93606 26.5674 8.17666 27.0855 8.54567 27.4545C8.91469 27.8235 9.43279 28.0641 10.4112 28.1956C11.4183 28.331 12.7531 28.3332 14.667 28.3332H17.3337C19.2475 28.3332 20.5824 28.331 21.5895 28.1956C22.5679 28.0641 23.086 27.8235 23.455 27.4545C23.824 27.0855 24.0646 26.5674 24.1961 25.589C24.3315 24.5819 24.3337 23.2471 24.3337 21.3332V10.6665C24.3337 8.75262 24.3315 7.4178 24.1961 6.41067C24.0646 5.4323 23.824 4.9142 23.455 4.54518C23.086 4.17617 22.5679 3.93557 21.5895 3.80403C20.5824 3.66863 19.2475 3.66651 17.3337 3.66651H14.667C12.7531 3.66651 11.4183 3.66863 10.4112 3.80403ZM11.0003 11.9998C11.0003 11.4476 11.448 10.9998 12.0003 10.9998H20.0003C20.5526 10.9998 21.0003 11.4476 21.0003 11.9998C21.0003 12.5521 20.5526 12.9998 20.0003 12.9998H12.0003C11.448 12.9998 11.0003 12.5521 11.0003 11.9998ZM11.0003 17.3332C11.0003 16.7809 11.448 16.3332 12.0003 16.3332H20.0003C20.5526 16.3332 21.0003 16.7809 21.0003 17.3332C21.0003 17.8855 20.5526 18.3332 20.0003 18.3332H12.0003C11.448 18.3332 11.0003 17.8855 11.0003 17.3332ZM11.0003 22.6665C11.0003 22.1142 11.448 21.6665 12.0003 21.6665H16.0003C16.5526 21.6665 17.0003 22.1142 17.0003 22.6665C17.0003 23.2188 16.5526 23.6665 16.0003 23.6665H12.0003C11.448 23.6665 11.0003 23.2188 11.0003 22.6665Z" fill="#0054C5"/>
</svg>
