<svg width="32" height="32" viewBox="0 0 32 32" fill="none" xmlns="http://www.w3.org/2000/svg">
<path d="M17.0497 7.74263C17.4234 7.89741 17.667 8.26205 17.667 8.66651V13.9998C17.667 14.5521 17.2193 14.9998 16.667 14.9998C16.1147 14.9998 15.667 14.5521 15.667 13.9998V11.0807L15.3741 11.3736C14.9836 11.7641 14.3504 11.7641 13.9599 11.3736C13.5694 10.9831 13.5694 10.3499 13.9599 9.95941L15.9599 7.95941C16.2459 7.67341 16.676 7.58785 17.0497 7.74263Z" fill="#0054C5"/>
<path fill-rule="evenodd" clip-rule="evenodd" d="M9.9982 2.14276C11.5487 1.88116 13.5636 1.6665 16.0005 1.6665C18.4375 1.6665 20.4524 1.88116 22.0029 2.14276L22.1827 2.17294C23.5296 2.39841 24.6492 2.58582 25.5246 3.66395C26.086 4.35541 26.2671 5.10268 26.3089 5.93748L26.9644 6.156C27.5819 6.36179 28.1232 6.54217 28.5526 6.74192C29.0168 6.95787 29.4422 7.23602 29.7674 7.68724C30.0926 8.13846 30.2219 8.62999 30.28 9.13865C30.3337 9.60918 30.3336 10.1797 30.3336 10.8306L30.3336 11.0242C30.3336 11.5599 30.3336 12.0332 30.2941 12.4289C30.2512 12.8578 30.1563 13.2748 29.9191 13.6778C29.682 14.0807 29.3636 14.3662 29.0095 14.612C28.6827 14.8387 28.2691 15.0685 27.8008 15.3287L24.2799 17.2848C23.5607 18.6999 22.5727 19.9615 21.2138 20.8729C20.0476 21.6551 18.6511 22.1502 17.0003 22.2914V24.9998H18.9073C20.0195 24.9998 20.9772 25.7849 21.1953 26.8756L21.4868 28.3332H24.0003C24.5526 28.3332 25.0003 28.7809 25.0003 29.3332C25.0003 29.8855 24.5526 30.3332 24.0003 30.3332H8.00033C7.44804 30.3332 7.00033 29.8855 7.00033 29.3332C7.00033 28.7809 7.44804 28.3332 8.00033 28.3332H10.5139L10.8054 26.8756C11.0235 25.7849 11.9811 24.9998 13.0934 24.9998H15.0003V22.2914C13.3497 22.1501 11.9534 21.655 10.7872 20.8729C9.42853 19.9616 8.44056 18.7001 7.72136 17.2851L4.19981 15.3287C3.73148 15.0685 3.31784 14.8387 2.99108 14.612C2.63696 14.3662 2.31855 14.0807 2.08143 13.6778C1.84432 13.2748 1.74939 12.8578 1.70653 12.4289C1.66697 12.0331 1.66699 11.56 1.667 11.0242L1.667 10.8306C1.66694 10.1797 1.66689 9.60918 1.7206 9.13865C1.77866 8.62999 1.908 8.13846 2.23321 7.68724C2.55842 7.23602 2.98382 6.95787 3.44802 6.74192C3.8774 6.54217 4.41864 6.36179 5.03614 6.156L5.69221 5.93731C5.73396 5.10258 5.9151 4.35536 6.47649 3.66395C7.35187 2.58582 8.47143 2.39841 9.81839 2.17294L9.9982 2.14276ZM12.5535 28.3332H19.4472L19.2341 27.2678C19.203 27.112 19.0662 26.9998 18.9073 26.9998H13.0934C12.9345 26.9998 12.7977 27.112 12.7665 27.2678L12.5535 28.3332ZM5.73646 8.03074C5.83189 10.0578 6.06085 12.2982 6.63097 14.3914L5.21005 13.602C4.69117 13.3137 4.36628 13.1319 4.13138 12.9689C3.91483 12.8186 3.8443 12.73 3.80517 12.6635C3.76603 12.597 3.72283 12.4923 3.69661 12.23C3.66818 11.9455 3.66702 11.5732 3.667 10.9796L3.667 10.8829C3.66698 10.1642 3.66848 9.70904 3.7077 9.36547C3.744 9.04744 3.8034 8.92921 3.85571 8.85664C3.90802 8.78406 4.00139 8.69031 4.29161 8.5553C4.60515 8.40944 5.03643 8.26409 5.71832 8.03679L5.73646 8.03074ZM25.3702 14.3911L26.7905 13.602C27.3094 13.3137 27.6343 13.1319 27.8692 12.9689C28.0857 12.8186 28.1563 12.73 28.1954 12.6635C28.2345 12.597 28.2778 12.4923 28.304 12.23C28.3324 11.9455 28.3336 11.5732 28.3336 10.9796L28.3336 10.8829C28.3336 10.1642 28.3321 9.70904 28.2929 9.36547C28.2566 9.04744 28.1972 8.92921 28.1449 8.85664C28.0926 8.78406 27.9992 8.69031 27.709 8.5553C27.3954 8.40944 26.9641 8.26409 26.2823 8.03679L26.2646 8.0309C26.1692 10.0578 25.9402 12.298 25.3702 14.3911ZM16.0005 3.6665C13.6814 3.6665 11.7779 3.87075 10.3309 4.11489C8.72172 4.3864 8.38367 4.48797 8.02914 4.92462C7.67974 5.35493 7.64657 5.76192 7.7183 7.56879C7.83786 10.5803 8.23513 13.8301 9.46544 16.3017C10.0728 17.5218 10.8668 18.5181 11.9012 19.2119C12.9291 19.9012 14.2551 20.3332 16.0005 20.3332C17.746 20.3332 19.072 19.9012 20.0998 19.2119C21.1343 18.5181 21.9283 17.5218 22.5356 16.3017C23.7659 13.8301 24.1632 10.5803 24.2828 7.56879C24.3545 5.76192 24.3213 5.35493 23.9719 4.92462C23.6174 4.48797 23.2793 4.3864 21.6701 4.11489C20.2231 3.87075 18.3197 3.6665 16.0005 3.6665Z" fill="#0054C5"/>
</svg>
