<svg width="25" height="24" viewBox="0 0 25 24" fill="none" xmlns="http://www.w3.org/2000/svg">
<path fill-rule="evenodd" clip-rule="evenodd" d="M12.6035 1.25H12.7285C14.7968 1.24998 16.4338 1.24997 17.7145 1.44129C19.0385 1.63907 20.0883 2.05481 20.9055 2.96274C21.7124 3.85936 22.0726 4.99222 22.2458 6.42355C22.416 7.83014 22.416 9.63498 22.416 11.9478V12.0522C22.416 14.365 22.416 16.1699 22.2458 17.5765C22.0726 19.0078 21.7124 20.1406 20.9055 21.0373C20.0883 21.9452 19.0385 22.3609 17.7145 22.5587C16.4338 22.75 14.7968 22.75 12.7285 22.75H12.6035C10.5352 22.75 8.89822 22.75 7.61748 22.5587C6.29349 22.3609 5.2437 21.9452 4.42656 21.0373C3.61961 20.1406 3.25939 19.0078 3.0862 17.5765C2.916 16.1699 2.91601 14.365 2.91602 12.0522V11.9478C2.91601 9.63499 2.916 7.83014 3.0862 6.42355C3.25939 4.99222 3.61961 3.85936 4.42656 2.96274C5.2437 2.05481 6.29349 1.63907 7.61748 1.44129C8.89823 1.24997 10.5352 1.24998 12.6035 1.25ZM7.8391 2.92483C6.71227 3.09316 6.04239 3.40965 5.54151 3.96619C5.03044 4.53404 4.73165 5.31193 4.57534 6.60374C4.41731 7.90972 4.41602 9.62385 4.41602 12C4.41602 14.3762 4.41731 16.0903 4.57534 17.3963C4.73165 18.6881 5.03044 19.466 5.54151 20.0338C6.04239 20.5903 6.71227 20.9068 7.8391 21.0752C8.99631 21.248 10.5212 21.25 12.666 21.25C14.8108 21.25 16.3357 21.248 17.4929 21.0752C18.6198 20.9068 19.2896 20.5903 19.7905 20.0338C20.3016 19.466 20.6004 18.6881 20.7567 17.3963C20.9147 16.0903 20.916 14.3762 20.916 12C20.916 9.62385 20.9147 7.90972 20.7567 6.60374C20.6004 5.31193 20.3016 4.53404 19.7905 3.96619C19.2896 3.40965 18.6198 3.09316 17.4929 2.92483C16.3357 2.75196 14.8108 2.75 12.666 2.75C10.5212 2.75 8.99631 2.75196 7.8391 2.92483ZM9.58213 5.24994C9.60982 5.24997 9.63777 5.25 9.66602 5.25H15.666C15.6943 5.25 15.7222 5.24997 15.7499 5.24994C16.1307 5.24954 16.4592 5.24919 16.7484 5.32667C17.5248 5.53472 18.1313 6.1412 18.3393 6.91766C18.4168 7.2068 18.4165 7.53533 18.4161 7.91612C18.416 7.9438 18.416 7.97176 18.416 8C18.416 8.02824 18.416 8.0562 18.4161 8.08389C18.4165 8.46468 18.4168 8.7932 18.3393 9.08234C18.1313 9.8588 17.5248 10.4653 16.7484 10.6733C16.4592 10.7508 16.1307 10.7505 15.7499 10.7501C15.7222 10.75 15.6943 10.75 15.666 10.75H9.66602C9.63778 10.75 9.60982 10.75 9.58213 10.7501C9.20134 10.7505 8.87282 10.7508 8.58367 10.6733C7.80722 10.4653 7.20073 9.8588 6.99268 9.08234C6.91521 8.7932 6.91555 8.46468 6.91596 8.08389C6.91599 8.0562 6.91602 8.02824 6.91602 8C6.91602 7.97176 6.91599 7.9438 6.91596 7.91612C6.91555 7.53533 6.91521 7.2068 6.99268 6.91766C7.20073 6.1412 7.80722 5.53472 8.58367 5.32667C8.87282 5.24919 9.20134 5.24954 9.58213 5.24994ZM9.66602 6.75C9.15274 6.75 9.04324 6.75644 8.9719 6.77556C8.71308 6.84491 8.51092 7.04707 8.44157 7.30589C8.42246 7.37722 8.41602 7.48673 8.41602 8C8.41602 8.51327 8.42246 8.62278 8.44157 8.69412C8.51092 8.95293 8.71308 9.1551 8.9719 9.22445C9.04324 9.24356 9.15274 9.25 9.66602 9.25H15.666C16.1793 9.25 16.2888 9.24356 16.3601 9.22445C16.6189 9.1551 16.8211 8.95293 16.8905 8.69412C16.9096 8.62278 16.916 8.51327 16.916 8C16.916 7.48673 16.9096 7.37722 16.8905 7.30589C16.8211 7.04707 16.6189 6.84491 16.3601 6.77556C16.2888 6.75644 16.1793 6.75 15.666 6.75H9.66602Z" fill="#333333"/>
<path d="M9.66602 13C9.66602 13.5523 9.2183 14 8.66602 14C8.11373 14 7.66602 13.5523 7.66602 13C7.66602 12.4477 8.11373 12 8.66602 12C9.2183 12 9.66602 12.4477 9.66602 13Z" fill="#333333"/>
<path d="M9.66602 17C9.66602 17.5523 9.2183 18 8.66602 18C8.11373 18 7.66602 17.5523 7.66602 17C7.66602 16.4477 8.11373 16 8.66602 16C9.2183 16 9.66602 16.4477 9.66602 17Z" fill="#333333"/>
<path d="M13.666 13C13.666 13.5523 13.2183 14 12.666 14C12.1137 14 11.666 13.5523 11.666 13C11.666 12.4477 12.1137 12 12.666 12C13.2183 12 13.666 12.4477 13.666 13Z" fill="#333333"/>
<path d="M13.666 17C13.666 17.5523 13.2183 18 12.666 18C12.1137 18 11.666 17.5523 11.666 17C11.666 16.4477 12.1137 16 12.666 16C13.2183 16 13.666 16.4477 13.666 17Z" fill="#333333"/>
<path d="M17.666 13C17.666 13.5523 17.2183 14 16.666 14C16.1137 14 15.666 13.5523 15.666 13C15.666 12.4477 16.1137 12 16.666 12C17.2183 12 17.666 12.4477 17.666 13Z" fill="#333333"/>
<path d="M17.666 17C17.666 17.5523 17.2183 18 16.666 18C16.1137 18 15.666 17.5523 15.666 17C15.666 16.4477 16.1137 16 16.666 16C17.2183 16 17.666 16.4477 17.666 17Z" fill="#333333"/>
</svg>
