<svg width="25" height="24" viewBox="0 0 25 24" fill="none" xmlns="http://www.w3.org/2000/svg">
<path fill-rule="evenodd" clip-rule="evenodd" d="M9.85923 2.82057C11.5496 2.05981 13.4514 2.05981 15.1417 2.82057L22.1117 5.95756C23.2079 6.4509 23.6984 7.52222 23.6984 8.50002C23.6984 9.47782 23.2079 10.5491 22.1117 11.0425L20.5732 11.7349V16.6254C20.5732 17.8785 19.9188 19.0883 18.7274 19.7217C17.9444 20.138 16.9153 20.6391 15.8324 21.038C14.7623 21.4321 13.5773 21.75 12.5003 21.75C11.4233 21.75 10.2384 21.4321 9.16821 21.038C8.08531 20.6391 7.05627 20.138 6.27323 19.7217C5.08185 19.0883 4.42741 17.8785 4.42741 16.6254V11.5C4.42741 11.4586 4.43091 11.4179 4.43764 11.3783C4.41313 11.2343 4.43208 11.0818 4.50149 10.9397C4.68465 10.5647 5.14982 10.4032 5.54049 10.579L10.5226 12.8213C11.7927 13.3929 13.2085 13.3929 14.4786 12.8213L21.4485 9.68433C21.8685 9.49531 22.1359 9.04443 22.1359 8.50002C22.1359 7.95562 21.8685 7.50473 21.4485 7.31571L14.4785 4.17873C13.2084 3.60709 11.7926 3.60709 10.5225 4.17872L3.55258 7.31567C3.16191 7.4915 2.69673 7.33 2.51358 6.95496C2.33043 6.57992 2.49865 6.13335 2.88932 5.95752L9.85923 2.82057ZM5.98991 12.4379V16.6254C5.98991 17.3884 6.38444 18.0661 7.03021 18.4095C7.77671 18.8063 8.73656 19.2724 9.72787 19.6375C10.7319 20.0073 11.7065 20.25 12.5003 20.25C13.2942 20.25 14.2687 20.0073 15.2728 19.6375C16.2641 19.2724 17.2239 18.8063 17.9704 18.4095C18.6162 18.0661 19.0107 17.3884 19.0107 16.6254V12.4381L15.1418 14.1794C13.4515 14.9402 11.5497 14.9402 9.85932 14.1794L5.98991 12.4379Z" fill="white"/>
<path d="M6.96841 7.70456C7.13838 8.08528 6.95466 8.52619 6.55808 8.68936L5.43758 9.15036C4.8097 9.40869 4.396 9.58 4.09199 9.74418C3.80451 9.89944 3.67995 10.0154 3.6008 10.1307C3.52164 10.2459 3.45965 10.4015 3.42424 10.7164C3.3868 11.0493 3.38574 11.4818 3.38574 12.1376V15C3.38574 15.4142 3.03597 15.75 2.60449 15.75C2.17302 15.75 1.82324 15.4142 1.82324 15V12.0987C1.82322 11.4923 1.82321 10.9782 1.87077 10.5553C1.92138 10.1053 2.03143 9.69064 2.29636 9.30494C2.56128 8.91925 2.91496 8.65879 3.32589 8.43686C3.71206 8.2283 4.20417 8.02585 4.78485 7.78696L5.94258 7.31064C6.33916 7.14747 6.79845 7.32384 6.96841 7.70456Z" fill="white"/>
</svg>
