<svg width="100" height="101" viewBox="0 0 100 101" fill="none" xmlns="http://www.w3.org/2000/svg">
<g clip-path="url(#clip0_2043_2441)">
<path fill-rule="evenodd" clip-rule="evenodd" d="M0.100413 37.4806L27.8432 5.39918C27.9134 5.31995 28.0118 5.27145 28.1174 5.26415C28.223 5.25684 28.3272 5.29131 28.4076 5.36012L69.5032 40.8957C69.5824 40.9671 69.6307 41.0665 69.638 41.1729C69.6453 41.2793 69.611 41.3844 69.5422 41.466L41.8002 73.5468C41.7291 73.6264 41.6297 73.6751 41.5232 73.6826C41.4167 73.6901 41.3115 73.6557 41.2299 73.5869L0.140257 38.0507C0.0997852 38.0162 0.0666162 37.9739 0.042693 37.9264C0.0187698 37.8788 0.00457348 37.827 0.000935639 37.7739C-0.0027022 37.7208 0.00429155 37.6675 0.0215072 37.6172C0.0387229 37.5668 0.0658144 37.5204 0.101195 37.4806H0.100413Z" fill="#006694"/>
<path fill-rule="evenodd" clip-rule="evenodd" d="M18.5102 22.3777L37.8778 13.5469L69.5034 40.8957C69.5826 40.9671 69.631 41.0665 69.6382 41.173C69.6455 41.2794 69.6112 41.3845 69.5424 41.466L41.8004 73.5469C41.7293 73.6265 41.6299 73.6752 41.5234 73.6826C41.4169 73.6901 41.3117 73.6558 41.2301 73.5869L39.2633 71.8822L17.6893 24.5729C17.5079 24.1729 17.4923 23.7173 17.6461 23.3059C17.7998 22.8944 18.1103 22.5607 18.5096 22.3777H18.5102Z" fill="#005C85"/>
<path fill-rule="evenodd" clip-rule="evenodd" d="M19.0291 23.518L57.6215 5.92365C57.7184 5.88042 57.8284 5.87713 57.9277 5.9145C58.027 5.95187 58.1075 6.02688 58.1518 6.12326L80.6893 55.5541C80.7121 55.602 80.7252 55.6539 80.7278 55.7068C80.7304 55.7598 80.7225 55.8127 80.7044 55.8626C80.6864 55.9124 80.6587 55.9582 80.6228 55.9973C80.5869 56.0363 80.5437 56.0678 80.4955 56.09L41.903 73.6836C41.8052 73.7263 41.6946 73.7294 41.5946 73.6922C41.4946 73.6549 41.413 73.5803 41.367 73.484L18.8295 24.0547C18.7858 23.957 18.7822 23.8461 18.8196 23.7458C18.8569 23.6456 18.9322 23.564 19.0291 23.5188V23.518Z" fill="#60B7FF"/>
<path fill-rule="evenodd" clip-rule="evenodd" d="M41.9365 17.4631H63.3232L80.6887 55.554C80.7115 55.6018 80.7246 55.6537 80.7272 55.7067C80.7298 55.7596 80.7218 55.8126 80.7038 55.8624C80.6858 55.9123 80.658 55.9581 80.6222 55.9971C80.5863 56.0362 80.5431 56.0677 80.4949 56.0899L41.9023 73.6835C41.8046 73.7262 41.694 73.7293 41.594 73.692C41.494 73.6548 41.4124 73.5801 41.3664 73.4838L40.2832 71.101V19.1221C40.2827 18.9046 40.3252 18.6891 40.408 18.488C40.4909 18.2869 40.6125 18.1041 40.7661 17.95C40.9196 17.7959 41.102 17.6736 41.3029 17.5901C41.5037 17.5066 41.719 17.4634 41.9365 17.4631Z" fill="#56A5E6"/>
<path fill-rule="evenodd" clip-rule="evenodd" d="M41.9371 18.7175H73.5227L84.7543 29.9492V73.4453C84.7539 73.5525 84.7111 73.6552 84.6353 73.731C84.5595 73.8069 84.4568 73.8497 84.3496 73.8501H41.9371C41.8843 73.8498 41.8321 73.8391 41.7835 73.8185C41.7348 73.798 41.6907 73.7681 41.6536 73.7305C41.6166 73.6929 41.5873 73.6483 41.5675 73.5994C41.5476 73.5504 41.5377 73.4981 41.5381 73.4453V19.1222C41.5377 19.0694 41.5476 19.0171 41.5675 18.9681C41.5873 18.9192 41.6166 18.8747 41.6537 18.8371C41.6907 18.7995 41.7348 18.7696 41.7835 18.7491C41.8321 18.7286 41.8843 18.7178 41.9371 18.7175Z" fill="#EAF6FF"/>
<path fill-rule="evenodd" clip-rule="evenodd" d="M73.5225 18.7175V27.4285C73.5238 28.0963 73.7896 28.7364 74.2618 29.2086C74.7341 29.6808 75.3742 29.9467 76.042 29.948H84.7529L73.5225 18.7175Z" fill="#BEC7CF"/>
<path fill-rule="evenodd" clip-rule="evenodd" d="M51.6523 57.0192H84.7945C86.4744 57.0243 88.084 57.6939 89.2718 58.8817C90.4597 60.0696 91.1293 61.6792 91.1344 63.359V89.3971C91.1302 91.0773 90.461 92.6875 89.2729 93.8756C88.0849 95.0637 86.4747 95.733 84.7945 95.7372H26.0363C24.3564 95.7321 22.7468 95.0625 21.5589 93.8746C20.371 92.6867 19.7014 91.077 19.6963 89.3971V50.6792C19.7 49.2988 20.2504 47.976 21.2271 47.0005C22.2037 46.025 23.527 45.476 24.9074 45.4739H35.9736C37.8096 45.4739 39.0582 46.6028 40.3693 47.8799L47.2566 54.6131C48.568 55.8959 49.8166 57.0192 51.6523 57.0192Z" fill="#FFBA57"/>
<path d="M48.4424 29.7954C48.0718 29.791 47.7178 29.6407 47.4572 29.3771C47.1967 29.1134 47.0506 28.7577 47.0506 28.3871C47.0506 28.0164 47.1967 27.6607 47.4572 27.3971C47.7178 27.1334 48.0718 26.9831 48.4424 26.9788H67.0631C67.4337 26.9831 67.7877 27.1334 68.0482 27.3971C68.3088 27.6607 68.4549 28.0164 68.4549 28.3871C68.4549 28.7577 68.3088 29.1134 68.0482 29.3771C67.7877 29.6407 67.4337 29.791 67.0631 29.7954H48.4424ZM48.4424 50.3422C48.0689 50.3422 47.7107 50.1939 47.4466 49.9298C47.1825 49.6657 47.0342 49.3075 47.0342 48.934C47.0342 48.5606 47.1825 48.2024 47.4466 47.9383C47.7107 47.6742 48.0689 47.5258 48.4424 47.5258H77.85C78.2235 47.5258 78.5817 47.6742 78.8458 47.9383C79.1098 48.2024 79.2582 48.5606 79.2582 48.934C79.2582 49.3075 79.1098 49.6657 78.8458 49.9298C78.5817 50.1939 78.2235 50.3422 77.85 50.3422H48.4424ZM48.4424 43.495C48.0718 43.4906 47.7178 43.3403 47.4572 43.0767C47.1967 42.813 47.0506 42.4573 47.0506 42.0867C47.0506 41.716 47.1967 41.3603 47.4572 41.0967C47.7178 40.833 48.0718 40.6827 48.4424 40.6784H77.85C78.0363 40.6762 78.2213 40.711 78.394 40.7808C78.5668 40.8506 78.7241 40.9539 78.8566 41.0849C78.9891 41.2159 79.0944 41.3719 79.1662 41.5439C79.238 41.7158 79.275 41.9003 79.275 42.0867C79.275 42.273 79.238 42.4575 79.1662 42.6295C79.0944 42.8014 78.9891 42.9574 78.8566 43.0884C78.7241 43.2194 78.5668 43.3228 78.394 43.3926C78.2213 43.4624 78.0363 43.4972 77.85 43.495H48.4424ZM48.4424 36.6475C48.2575 36.6475 48.0743 36.6111 47.9035 36.5403C47.7326 36.4695 47.5774 36.3658 47.4466 36.2351C47.3159 36.1043 47.2121 35.9491 47.1414 35.7782C47.0706 35.6074 47.0342 35.4242 47.0342 35.2393C47.0342 35.0544 47.0706 34.8713 47.1414 34.7004C47.2121 34.5296 47.3159 34.3743 47.4466 34.2436C47.5774 34.1128 47.7326 34.0091 47.9035 33.9383C48.0743 33.8675 48.2575 33.8311 48.4424 33.8311H77.85C78.0349 33.8311 78.218 33.8675 78.3889 33.9383C78.5597 34.0091 78.715 34.1128 78.8458 34.2436C78.9765 34.3743 79.0802 34.5296 79.151 34.7004C79.2218 34.8713 79.2582 35.0544 79.2582 35.2393C79.2582 35.4242 79.2218 35.6074 79.151 35.7782C79.0802 35.9491 78.9765 36.1043 78.8458 36.2351C78.715 36.3658 78.5597 36.4695 78.3889 36.5403C78.218 36.6111 78.0349 36.6475 77.85 36.6475H48.4424Z" fill="#BEC7CF"/>
<path d="M28.6416 78.7358C28.2681 78.7358 27.9099 78.5875 27.6459 78.3234C27.3818 78.0593 27.2334 77.7011 27.2334 77.3276C27.2334 76.9542 27.3818 76.596 27.6459 76.3319C27.9099 76.0678 28.2681 75.9194 28.6416 75.9194H42.3762C42.7496 75.9194 43.1078 76.0678 43.3719 76.3319C43.636 76.596 43.7844 76.9542 43.7844 77.3276C43.7844 77.7011 43.636 78.0593 43.3719 78.3234C43.1078 78.5875 42.7496 78.7358 42.3762 78.7358H28.6416ZM28.6416 88.354C28.2681 88.354 27.9099 88.2056 27.6459 87.9415C27.3818 87.6775 27.2334 87.3193 27.2334 86.9458C27.2334 86.5723 27.3818 86.2141 27.6459 85.95C27.9099 85.686 28.2681 85.5376 28.6416 85.5376H82.1887C82.5622 85.5376 82.9203 85.686 83.1844 85.95C83.4485 86.2141 83.5969 86.5723 83.5969 86.9458C83.5969 87.3193 83.4485 87.6775 83.1844 87.9415C82.9203 88.2056 82.5622 88.354 82.1887 88.354H28.6416Z" fill="#CF9646"/>
<path fill-rule="evenodd" clip-rule="evenodd" d="M84.7549 58.0855C85.6247 58.6634 86.3384 59.4471 86.8327 60.367C87.3271 61.2869 87.5867 62.3146 87.5887 63.3589V89.3974C87.5845 91.0776 86.9152 92.6878 85.7271 93.8758C84.539 95.0639 82.9288 95.7332 81.2486 95.7374H84.7949C86.4751 95.7332 88.0853 95.0639 89.2733 93.8758C90.4614 92.6877 91.1306 91.0775 91.1348 89.3974V63.3593C91.136 62.5274 90.9713 61.7036 90.6502 60.9362C90.168 59.7796 89.3551 58.791 88.3136 58.0943C87.272 57.3976 86.048 57.0237 84.7949 57.0194H81.2486C82.4972 57.0193 83.7177 57.3903 84.7549 58.0855ZM47.257 54.6134L41.5387 49.0261L40.3697 47.8802C39.0586 46.603 37.81 45.4741 35.974 45.4741H32.4336C34.2637 45.4741 35.5123 46.603 36.8236 47.8802L41.5387 52.4868L43.7166 54.6134C45.0221 55.8962 46.2707 57.0194 48.1066 57.0194H51.6527C49.8168 57.0194 48.5684 55.8962 47.257 54.6134Z" fill="#E6A74E"/>
<path fill-rule="evenodd" clip-rule="evenodd" d="M87.9984 75.7369C90.3721 75.7369 92.6924 75.033 94.666 73.7143C96.6397 72.3955 98.1779 70.5212 99.0863 68.3282C99.9946 66.1353 100.232 63.7222 99.7692 61.3942C99.3061 59.0661 98.1631 56.9277 96.4847 55.2493C94.8063 53.5708 92.6678 52.4278 90.3398 51.9647C88.0118 51.5017 85.5987 51.7393 83.4057 52.6477C81.2128 53.556 79.3384 55.0943 78.0197 57.0679C76.7009 59.0415 75.9971 61.3619 75.9971 63.7355C76.003 66.9166 77.2693 69.9658 79.5188 72.2152C81.7682 74.4646 84.8173 75.7309 87.9984 75.7369Z" fill="#25C73B"/>
<path d="M80.8264 65.3661C80.6922 65.2362 80.5851 65.0808 80.5115 64.9092C80.4379 64.7375 80.3991 64.5529 80.3975 64.3661C80.3959 64.1793 80.4314 63.9941 80.502 63.8211C80.5727 63.6482 80.677 63.4911 80.8089 63.3588C80.9408 63.2266 81.0977 63.1219 81.2704 63.0508C81.4432 62.9797 81.6283 62.9437 81.8151 62.9449C82.0019 62.946 82.1866 62.9843 82.3585 63.0575C82.5303 63.1307 82.6859 63.2373 82.8162 63.3712L85.5185 66.0735L93.1748 58.4173C93.4386 58.1534 93.7965 58.0051 94.1697 58.0051C94.5428 58.0051 94.9007 58.1533 95.1645 58.4172C95.4284 58.681 95.5767 59.0389 95.5767 59.412C95.5767 59.7852 95.4285 60.143 95.1646 60.4069L86.5105 69.0606C86.2462 69.3235 85.8885 69.4711 85.5157 69.4711C85.1429 69.4711 84.7852 69.3235 84.5209 69.0606L80.8264 65.3661Z" fill="#EAF6FF"/>
<path fill-rule="evenodd" clip-rule="evenodd" d="M86.9777 51.774C89.9223 52.0236 92.6713 53.3507 94.6984 55.501C96.7254 57.6514 97.888 60.4739 97.9636 63.428C98.0391 66.3822 97.0223 69.2604 95.1079 71.5116C93.1934 73.7627 90.5158 75.2286 87.5879 75.6285C87.3883 75.657 87.183 75.6798 86.9777 75.6968C87.183 75.714 87.3826 75.7253 87.5879 75.7312C87.7246 75.7369 87.8613 75.7369 87.998 75.7369C89.0572 75.7388 90.1118 75.5988 91.1338 75.3207C93.9417 74.5605 96.378 72.8064 97.9896 70.3845C99.6011 67.9626 100.278 65.0379 99.8947 62.1542C99.5114 59.2706 98.0937 56.6243 95.9054 54.7076C93.7171 52.7909 90.9071 51.7342 87.998 51.7341C87.6559 51.7341 87.3145 51.7455 86.9775 51.7732L86.9777 51.774Z" fill="#21B335"/>
<path fill-rule="evenodd" clip-rule="evenodd" d="M82.1885 29.9492V53.2279C82.9999 52.7794 83.8609 52.4274 84.7541 52.1789V29.9492H82.1885Z" fill="#D3DDE6"/>
</g>
<defs>
<clipPath id="clip0_2043_2441">
<rect width="100" height="100" fill="white" transform="translate(0 0.5)"/>
</clipPath>
</defs>
</svg>
