<svg width="16" height="16" viewBox="0 0 16 16" fill="none" xmlns="http://www.w3.org/2000/svg">
<path d="M7.68681 3.80664C9.77861 3.80664 11.5052 5.5332 11.5052 7.625C11.5052 9.75 9.77861 11.4434 7.68681 11.4434C5.56181 11.4434 3.86845 9.75 3.86845 7.625C3.86845 5.5332 5.56181 3.80664 7.68681 3.80664ZM7.68681 10.1152C9.04814 10.1152 10.1438 9.01953 10.1438 7.625C10.1438 6.26367 9.04814 5.16797 7.68681 5.16797C6.29228 5.16797 5.19657 6.26367 5.19657 7.625C5.19657 9.01953 6.32548 10.1152 7.68681 10.1152ZM12.5345 3.67383C12.5345 4.17188 12.136 4.57031 11.638 4.57031C11.1399 4.57031 10.7415 4.17188 10.7415 3.67383C10.7415 3.17578 11.1399 2.77734 11.638 2.77734C12.136 2.77734 12.5345 3.17578 12.5345 3.67383ZM15.0579 4.57031C15.1243 5.79883 15.1243 9.48438 15.0579 10.7129C14.9915 11.9082 14.7259 12.9375 13.8626 13.834C12.9993 14.6973 11.9368 14.9629 10.7415 15.0293C9.51298 15.0957 5.82743 15.0957 4.59892 15.0293C3.40361 14.9629 2.37431 14.6973 1.47782 13.834C0.614543 12.9375 0.348918 11.9082 0.282512 10.7129C0.216105 9.48438 0.216105 5.79883 0.282512 4.57031C0.348918 3.375 0.614543 2.3125 1.47782 1.44922C2.37431 0.585938 3.40361 0.320312 4.59892 0.253906C5.82743 0.1875 9.51298 0.1875 10.7415 0.253906C11.9368 0.320312 12.9993 0.585938 13.8626 1.44922C14.7259 2.3125 14.9915 3.375 15.0579 4.57031ZM13.4642 12.0078C13.8626 11.0449 13.763 8.7207 13.763 7.625C13.763 6.5625 13.8626 4.23828 13.4642 3.24219C13.1985 2.61133 12.7005 2.08008 12.0696 1.84766C11.0735 1.44922 8.74931 1.54883 7.68681 1.54883C6.59111 1.54883 4.26689 1.44922 3.304 1.84766C2.63993 2.11328 2.14189 2.61133 1.87626 3.24219C1.47782 4.23828 1.57743 6.5625 1.57743 7.625C1.57743 8.7207 1.47782 11.0449 1.87626 12.0078C2.14189 12.6719 2.63993 13.1699 3.304 13.4355C4.26689 13.834 6.59111 13.7344 7.68681 13.7344C8.74931 13.7344 11.0735 13.834 12.0696 13.4355C12.7005 13.1699 13.2317 12.6719 13.4642 12.0078Z" fill="white"/>
</svg>
