<svg width="18" height="15" viewBox="0 0 18 15" fill="none" xmlns="http://www.w3.org/2000/svg">
<path d="M15.4402 4.17188C15.4402 4.33789 15.4402 4.4707 15.4402 4.63672C15.4402 9.25195 11.9539 14.5312 5.5457 14.5312C3.55352 14.5312 1.72734 13.9668 0.200001 12.9707C0.465626 13.0039 0.731251 13.0371 1.03008 13.0371C2.65703 13.0371 4.15117 12.4727 5.34649 11.543C3.81914 11.5098 2.52422 10.5137 2.09258 9.11914C2.325 9.15234 2.52422 9.18555 2.75664 9.18555C3.05547 9.18555 3.3875 9.11914 3.65313 9.05273C2.05938 8.7207 0.864063 7.32617 0.864063 5.63281V5.59961C1.32891 5.86523 1.89336 5.99805 2.45781 6.03125C1.49492 5.40039 0.897266 4.33789 0.897266 3.14258C0.897266 2.47852 1.06328 1.88086 1.36211 1.38281C3.08867 3.47461 5.67852 4.86914 8.56719 5.03516C8.50078 4.76953 8.46758 4.50391 8.46758 4.23828C8.46758 2.3125 10.0281 0.751953 11.9539 0.751953C12.95 0.751953 13.8465 1.15039 14.5105 1.84766C15.2742 1.68164 16.0379 1.38281 16.702 0.984375C16.4363 1.81445 15.9051 2.47852 15.1746 2.91016C15.8719 2.84375 16.5691 2.64453 17.1668 2.37891C16.702 3.07617 16.1043 3.67383 15.4402 4.17188Z" fill="white"/>
</svg>
