<svg width="26" height="26" viewBox="0 0 26 26" fill="none" xmlns="http://www.w3.org/2000/svg">
<path d="M24.1731 23.7242C24.0585 24.3201 23.7043 24.6232 23.1107 24.6335C17.1116 24.7383 11.9503 22.703 7.62674 18.5278C3.30322 14.3527 1.08909 9.26553 0.98438 3.26644C0.974018 2.67278 1.26458 2.30828 1.85605 2.17294L6.71068 0.963029C7.30161 0.796441 7.72724 1.00779 7.98756 1.59709L10.3288 6.80703C10.5563 7.30313 10.4546 7.74247 10.0237 8.12505L7.25169 10.4707C8.12749 12.2994 9.2963 13.9043 10.7581 15.2852C12.2205 16.6974 13.8652 17.8095 15.6921 18.6215L17.9864 15.7685C18.3225 15.3251 18.758 15.2081 19.293 15.4175L24.5815 17.5756C25.1482 17.8157 25.3587 18.234 25.2128 18.8303L24.1731 23.7242Z" fill="white"/>
</svg>
