<svg width="16" height="16" viewBox="0 0 16 16" fill="none" xmlns="http://www.w3.org/2000/svg">
<g clip-path="url(#clip0_65_6330)">
<path fill-rule="evenodd" clip-rule="evenodd" d="M8.00065 1.83331C4.5949 1.83331 1.83398 4.59422 1.83398 7.99998C1.83398 11.4057 4.5949 14.1666 8.00065 14.1666C11.4064 14.1666 14.1673 11.4057 14.1673 7.99998C14.1673 4.59422 11.4064 1.83331 8.00065 1.83331ZM0.833984 7.99998C0.833984 4.04194 4.04261 0.833313 8.00065 0.833313C11.9587 0.833313 15.1673 4.04194 15.1673 7.99998C15.1673 11.958 11.9587 15.1666 8.00065 15.1666C4.04261 15.1666 0.833984 11.958 0.833984 7.99998ZM8.00065 4.83331C8.27679 4.83331 8.50065 5.05717 8.50065 5.33331V7.79287L10.0209 9.31309C10.2161 9.50836 10.2161 9.82494 10.0209 10.0202C9.82561 10.2155 9.50903 10.2155 9.31376 10.0202L7.6471 8.35353C7.55333 8.25977 7.50065 8.13259 7.50065 7.99998V5.33331C7.50065 5.05717 7.72451 4.83331 8.00065 4.83331Z" fill="white"/>
</g>
<defs>
<clipPath id="clip0_65_6330">
<rect width="16" height="16" fill="white"/>
</clipPath>
</defs>
</svg>
