<svg width="24" height="24" viewBox="0 0 24 24" fill="none" xmlns="http://www.w3.org/2000/svg">
<path fill-rule="evenodd" clip-rule="evenodd" d="M1.5 2C1.5 1.44772 1.94772 1 2.5 1H3.43845C4.81505 1 6.015 1.93689 6.34887 3.27239L6.35349 3.29084L8.75951 14.7507C8.87299 15.2912 8.52682 15.8214 7.98632 15.9348C7.44582 16.0483 6.91566 15.7021 6.80218 15.1616L4.40464 3.74218C4.28811 3.30517 3.89205 3 3.43845 3H2.5C1.94772 3 1.5 2.55228 1.5 2Z" fill="white"/>
<path d="M21.9392 6.45416C21.6333 6.03323 21.2009 5.87452 20.7861 5.80866C20.4157 5.74986 19.9521 5.74992 19.4483 5.75L5.08203 5.75L7.39151 16.75H15.2636C16.4615 16.75 17.4602 16.5622 18.2933 16.1756C19.1348 15.785 19.7674 15.21 20.2536 14.5004C21.1921 13.1307 21.5912 11.2313 21.9967 9.2171L22.0061 9.17024C22.1174 8.61746 22.2152 8.13212 22.2424 7.73698C22.2712 7.3175 22.2336 6.85935 21.9392 6.45416Z" fill="white"/>
<path fill-rule="evenodd" clip-rule="evenodd" d="M5.96124 15.987C6.55421 15.2897 7.43219 14.7617 8.46857 14.7617H9C9.55228 14.7617 10 15.2094 10 15.7617C10 16.314 9.55228 16.7617 9 16.7617H8.46857C8.1416 16.7617 7.78529 16.9293 7.48481 17.2826C7.30846 17.49 7.17262 17.7388 7.09019 18.0016H17.5C18.0523 18.0016 18.5 18.4493 18.5 19.0016C18.5 19.5539 18.0523 19.1245 17.5 19.1245L16.0969 20.0016H11.9557L10.5696 19.1245L9.18357 20.0016H6.41143C5.59384 20.0016 5 19.3231 5 18.573C5 17.6124 5.36948 16.6828 5.96124 15.987Z" fill="white"/>
<path fill-rule="evenodd" clip-rule="evenodd" d="M10.5 19.4961C10.0858 19.4961 9.75 19.8319 9.75 20.2461C9.75 20.6603 10.0858 20.9961 10.5 20.9961C10.9142 20.9961 11.25 20.6603 11.25 20.2461C11.25 19.8319 10.9142 19.4961 10.5 19.4961ZM8.25 20.2461C8.25 19.0035 9.25736 17.9961 10.5 17.9961C11.7426 17.9961 12.75 19.0035 12.75 20.2461C12.75 21.4887 11.7426 22.4961 10.5 22.4961C9.25736 22.4961 8.25 21.4887 8.25 20.2461Z" fill="white"/>
<path fill-rule="evenodd" clip-rule="evenodd" d="M17.5 19.4961C17.0858 19.4961 16.75 19.8319 16.75 20.2461C16.75 20.6603 17.0858 20.9961 17.5 20.9961C17.9142 20.9961 18.25 20.6603 18.25 20.2461C18.25 19.8319 17.9142 19.4961 17.5 19.4961ZM15.25 20.2461C15.25 19.0035 16.2574 17.9961 17.5 17.9961C18.7426 17.9961 19.75 19.0035 19.75 20.2461C19.75 21.4887 18.7426 22.4961 17.5 22.4961C16.2574 22.4961 15.25 21.4887 15.25 20.2461Z" fill="white"/>
</svg>
