<svg width="24" height="24" viewBox="0 0 24 24" fill="none" xmlns="http://www.w3.org/2000/svg">
<path fill-rule="evenodd" clip-rule="evenodd" d="M5.73263 2.04299C6.94996 0.83257 8.95434 1.04802 9.97365 2.40961L11.2346 4.09401C12.064 5.20189 11.9908 6.7503 11.0063 7.72922L10.7676 7.96663C10.7571 7.99693 10.7318 8.09214 10.7599 8.27309C10.8231 8.68059 11.1634 9.54499 12.5919 10.9654C14.0199 12.3853 14.8905 12.7253 15.3038 12.7886C15.4911 12.8174 15.589 12.7906 15.6193 12.78L16.0273 12.3743C16.9025 11.5041 18.2474 11.3414 19.331 11.9305L21.2415 12.9691C22.8775 13.8584 23.2908 16.0821 21.9505 17.4148L20.5299 18.8273C20.0824 19.2723 19.4805 19.6434 18.7459 19.7119C16.9369 19.8805 12.7186 19.6653 8.28654 15.2584C4.14862 11.144 3.35456 7.55599 3.25409 5.78816L4.00289 5.74561L3.25409 5.78816C3.20329 4.89425 3.62571 4.13795 4.16303 3.60368L5.73263 2.04299ZM8.77286 3.30855C8.26623 2.63181 7.32195 2.578 6.79027 3.10667L5.22067 4.66735C4.89074 4.9954 4.73201 5.35694 4.75168 5.70305C4.8315 7.10765 5.4728 10.3453 9.34418 14.1947C13.4056 18.2331 17.1568 18.3535 18.6067 18.2184C18.9029 18.1908 19.1975 18.0369 19.4723 17.7636L20.8929 16.3511C21.4703 15.7769 21.3429 14.7315 20.5251 14.2869L18.6146 13.2483C18.0871 12.9616 17.469 13.0562 17.085 13.438L16.6295 13.8909L16.1007 13.359C16.6295 13.8909 16.6288 13.8916 16.6281 13.8923L16.6266 13.8937L16.6236 13.8967L16.6171 13.903L16.6024 13.9166C16.5919 13.9262 16.5799 13.9367 16.5663 13.9479C16.5392 13.9704 16.5058 13.9959 16.4658 14.0227C16.3858 14.0763 16.28 14.1346 16.1472 14.1841C15.8763 14.285 15.5192 14.3392 15.0763 14.2713C14.2095 14.1383 13.0613 13.5474 11.5343 12.0291C10.0078 10.5113 9.41189 9.36833 9.27765 8.50305C9.20901 8.06059 9.26376 7.70329 9.36588 7.43224C9.41594 7.2994 9.47492 7.19377 9.52905 7.11388C9.55604 7.07403 9.58174 7.04072 9.60441 7.01367C9.61575 7.00014 9.62634 6.98816 9.63598 6.97769L9.64971 6.9631L9.656 6.95664L9.659 6.95362L9.66045 6.95216C9.66117 6.95144 9.66188 6.95073 10.1907 7.48257L9.66188 6.95073L9.9487 6.66555C10.3773 6.23938 10.4373 5.53193 10.0338 4.99295L8.77286 3.30855Z" fill="#F2F2F2"/>
</svg>
