<svg width="14" height="17" viewBox="0 0 14 17" fill="none" xmlns="http://www.w3.org/2000/svg">
<path d="M4.86676 10.2518L5.61745 10.0812C5.63313 10.0777 5.65966 10.0718 5.69101 10.0617C5.89836 10.0071 6.07603 9.87553 6.18659 9.69477C6.29716 9.514 6.33198 9.29814 6.28372 9.09265L6.2807 9.07962C6.25589 8.98117 6.21253 8.88815 6.15288 8.80538C6.06882 8.70056 5.96478 8.61285 5.84657 8.54712C5.7074 8.46922 5.56177 8.40304 5.41123 8.34929L4.5882 8.05372C4.12633 7.88491 3.66446 7.72084 3.19777 7.56032C2.89569 7.45488 2.63943 7.36189 2.41694 7.29377C2.37459 7.28226 2.33257 7.26962 2.29092 7.25586C2.022 7.17531 1.83267 7.14155 1.67289 7.14036C1.56609 7.13646 1.45972 7.15546 1.36116 7.19604C1.25818 7.23983 1.16574 7.30441 1.08982 7.38558C1.05216 7.42758 1.01674 7.47147 0.983702 7.51708C0.919465 7.61403 0.866478 7.71774 0.825729 7.82627C0.672817 8.26993 0.596594 8.73562 0.600221 9.20401C0.603236 9.62692 0.614692 10.1701 0.851655 10.5385C0.908937 10.6333 0.985513 10.715 1.07656 10.7784C1.24539 10.8927 1.41542 10.9081 1.5933 10.9206C1.8586 10.9389 2.11486 10.8755 2.37111 10.8169L4.86495 10.2512L4.86676 10.2518ZM13.2419 6.33717C13.037 5.91464 12.7614 5.52883 12.4267 5.19577C12.3834 5.15341 12.3371 5.11422 12.288 5.07849C12.2427 5.04509 12.1956 5.01405 12.1469 4.9855C12.0968 4.95854 12.0453 4.93422 11.9925 4.91264C11.8884 4.87244 11.7769 4.85427 11.6651 4.85933C11.5584 4.86526 11.4541 4.89487 11.3594 4.94404C11.2165 5.01393 11.0616 5.12647 10.8554 5.31424C10.827 5.34207 10.7914 5.37347 10.7589 5.40308C10.5895 5.56005 10.4001 5.75374 10.1752 5.97882C9.82731 6.32414 9.48543 6.67124 9.14476 7.02131L8.53578 7.64206C8.42457 7.75528 8.32331 7.87753 8.23309 8.00752C8.15584 8.11752 8.10115 8.24125 8.0721 8.3718C8.05579 8.47209 8.05824 8.57446 8.07933 8.67388L8.08235 8.68691C8.13047 8.89218 8.2578 9.0711 8.43752 9.186C8.61724 9.3009 8.83533 9.34282 9.04588 9.30293C9.07122 9.29942 9.09638 9.29467 9.12125 9.28871L12.3664 8.55186C12.6226 8.49381 12.8819 8.44051 13.1116 8.30901C13.266 8.22194 13.4125 8.13487 13.5132 7.95954C13.5668 7.86297 13.5993 7.75643 13.6085 7.6468C13.6585 7.21203 13.4276 6.71863 13.2419 6.33717ZM7.43236 7.6776C7.66751 7.38736 7.66751 6.95496 7.68801 6.60076C7.75916 5.41908 7.83333 4.2374 7.89302 3.05512C7.91533 2.60733 7.96417 2.16546 7.93703 1.71411C7.91472 1.34213 7.91232 0.914475 7.67294 0.608837C7.25087 0.0698251 6.35004 0.114249 5.73563 0.198359C5.54609 0.224078 5.35795 0.258869 5.17186 0.302607C4.98494 0.346439 4.79923 0.394417 4.61835 0.451872C4.02865 0.641415 3.19958 0.9897 3.05969 1.65725C2.9801 2.03455 3.16823 2.42015 3.31294 2.76489C3.4896 3.18188 3.73019 3.558 3.94966 3.95071C4.53031 4.98787 5.12121 6.0191 5.7103 7.05092C5.88697 7.35893 6.07811 7.74868 6.41878 7.9086C6.4417 7.91808 6.46461 7.92637 6.48812 7.93407C6.64067 7.99093 6.80769 8.0016 6.96627 7.96546L6.99461 7.95954C7.14173 7.91986 7.27438 7.84108 7.37869 7.73268C7.39799 7.71491 7.41548 7.69714 7.43296 7.6776H7.43236ZM7.15077 10.8412C7.059 10.7144 6.92874 10.6193 6.77863 10.5696C6.62852 10.5199 6.46626 10.5182 6.31507 10.5646C6.2795 10.5761 6.24484 10.5901 6.21136 10.6066C6.15955 10.6326 6.11012 10.6629 6.06364 10.6972C5.9309 10.8 5.81233 10.9193 5.71091 11.052C5.68498 11.0846 5.66086 11.1279 5.62951 11.1563L5.10734 11.8612C4.81189 12.2568 4.51946 12.6531 4.23064 13.0553C4.04131 13.3153 3.87851 13.5351 3.74888 13.7287C3.72476 13.7655 3.69943 13.8057 3.67652 13.8389C3.52156 14.0735 3.43413 14.2453 3.38891 14.3981C3.35513 14.4996 3.34442 14.6072 3.35755 14.7132C3.37203 14.8234 3.41001 14.9294 3.4685 15.0247C3.49985 15.0721 3.53362 15.1183 3.5698 15.1628C3.64794 15.2511 3.73592 15.3306 3.83209 15.3997C4.19266 15.6461 4.58699 15.8232 5.00183 15.96C5.34732 16.0726 5.70608 16.1401 6.06907 16.1602C6.13117 16.1632 6.19327 16.162 6.25478 16.1567C6.31181 16.1514 6.36855 16.1435 6.42481 16.133C6.4811 16.1201 6.53665 16.1043 6.59123 16.0856C6.69733 16.0465 6.79388 15.986 6.87462 15.9079C6.95119 15.8327 7.01029 15.742 7.04707 15.6419C7.10736 15.4939 7.14716 15.3067 7.17369 15.0283C7.1755 14.9886 7.18152 14.9412 7.18575 14.898C7.20625 14.667 7.2159 14.3945 7.23037 14.0758C7.25629 13.5848 7.27619 13.0961 7.29187 12.6063L7.32563 11.7344C7.33347 11.5342 7.32684 11.3115 7.27016 11.1119C7.24524 11.016 7.20494 10.9246 7.15077 10.8412ZM13.0435 12.2053C12.935 12.0874 12.7806 11.9707 12.537 11.8262C12.502 11.8067 12.4604 11.7812 12.4225 11.7587C12.2199 11.6384 11.9757 11.5129 11.6905 11.3606C11.2521 11.1237 10.8138 10.8939 10.3706 10.6653L9.58854 10.2577C9.54814 10.2459 9.50714 10.2175 9.46855 10.1991C9.31818 10.1237 9.15846 10.0677 8.99342 10.0327C8.93656 10.0219 8.87887 10.0159 8.82098 10.0149C8.78349 10.0147 8.74603 10.0169 8.70882 10.0214C8.55226 10.0452 8.40734 10.1169 8.29473 10.2263C8.18212 10.3358 8.10758 10.4774 8.08174 10.6309C8.07029 10.7286 8.07391 10.8276 8.0932 10.9235C8.13119 11.1285 8.22404 11.3304 8.32052 11.5075L8.73777 12.277C8.97051 12.7105 9.20566 13.1418 9.44684 13.5718C9.60241 13.852 9.73205 14.0918 9.85324 14.2909C9.87615 14.3282 9.90208 14.3685 9.92198 14.4034C10.0697 14.6421 10.1879 14.7926 10.3079 14.901C10.3878 14.9765 10.4837 15.0337 10.5888 15.0685C10.6939 15.1033 10.8055 15.1149 10.9157 15.1023C10.973 15.0955 11.03 15.0856 11.0863 15.0727C11.2016 15.0424 11.3131 14.9993 11.4185 14.9442C11.7359 14.7694 12.0284 14.5543 12.2886 14.3045C12.6009 14.0024 12.8771 13.6731 13.0917 13.2964C13.1219 13.243 13.1472 13.188 13.1689 13.1305C13.1891 13.0779 13.2066 13.0243 13.2214 12.97C13.234 12.9143 13.2437 12.8586 13.2503 12.8024C13.2611 12.6918 13.2482 12.5802 13.2123 12.4748C13.1769 12.3737 13.1193 12.2815 13.0435 12.2047V12.2053Z" fill="#1C1C1C"/>
</svg>
