<svg width="16" height="16" viewBox="0 0 16 16" fill="none" xmlns="http://www.w3.org/2000/svg">
<g clip-path="url(#clip0_65_6334)">
<path d="M5.16732 9.99998C5.16732 9.72384 4.94346 9.49998 4.66732 9.49998C4.39118 9.49998 4.16732 9.72384 4.16732 9.99998V12C4.16732 12.2761 4.39118 12.5 4.66732 12.5C4.94346 12.5 5.16732 12.2761 5.16732 12V9.99998Z" fill="white"/>
<path d="M8.00065 7.49998C8.27679 7.49998 8.50065 7.72384 8.50065 7.99998V12C8.50065 12.2761 8.27679 12.5 8.00065 12.5C7.72451 12.5 7.50065 12.2761 7.50065 12V7.99998C7.50065 7.72384 7.72451 7.49998 8.00065 7.49998Z" fill="white"/>
<path d="M11.834 5.99998C11.834 5.72384 11.6101 5.49998 11.334 5.49998C11.0578 5.49998 10.834 5.72384 10.834 5.99998V12C10.834 12.2761 11.0578 12.5 11.334 12.5C11.6101 12.5 11.834 12.2761 11.834 12V5.99998Z" fill="white"/>
<path fill-rule="evenodd" clip-rule="evenodd" d="M7.9624 0.833313C6.42347 0.833305 5.21745 0.833298 4.27646 0.959811C3.3133 1.0893 2.55328 1.35953 1.95674 1.95607C1.3602 2.55261 1.08998 3.31263 0.960482 4.27578C0.833969 5.21677 0.833976 6.4228 0.833985 7.96173V8.03823C0.833976 9.57716 0.833969 10.7832 0.960482 11.7242C1.08998 12.6873 1.3602 13.4473 1.95674 14.0439C2.55328 14.6404 3.3133 14.9107 4.27646 15.0401C5.21745 15.1667 6.42347 15.1667 7.9624 15.1666H8.0389C9.57783 15.1667 10.7839 15.1667 11.7248 15.0401C12.688 14.9107 13.448 14.6404 14.0446 14.0439C14.6411 13.4473 14.9113 12.6873 15.0408 11.7242C15.1673 10.7832 15.1673 9.57716 15.1673 8.03823V7.96173C15.1673 6.4228 15.1673 5.21678 15.0408 4.27578C14.9113 3.31263 14.6411 2.55261 14.0446 1.95607C13.448 1.35953 12.688 1.0893 11.7248 0.959811C10.7839 0.833298 9.57783 0.833305 8.0389 0.833313H7.9624ZM2.66385 2.66318C3.04362 2.28341 3.55743 2.06548 4.4097 1.95089C5.27635 1.83438 6.41517 1.83331 8.00065 1.83331C9.58613 1.83331 10.7249 1.83438 11.5916 1.95089C12.4439 2.06548 12.9577 2.28341 13.3375 2.66318C13.7172 3.04295 13.9352 3.55676 14.0497 4.40903C14.1663 5.27568 14.1673 6.4145 14.1673 7.99998C14.1673 9.58546 14.1663 10.7243 14.0497 11.5909C13.9352 12.4432 13.7172 12.957 13.3375 13.3368C12.9577 13.7166 12.4439 13.9345 11.5916 14.0491C10.7249 14.1656 9.58613 14.1666 8.00065 14.1666C6.41517 14.1666 5.27635 14.1656 4.4097 14.0491C3.55743 13.9345 3.04362 13.7166 2.66385 13.3368C2.28408 12.957 2.06615 12.4432 1.95156 11.5909C1.83505 10.7243 1.83398 9.58546 1.83398 7.99998C1.83398 6.4145 1.83505 5.27568 1.95156 4.40903C2.06615 3.55676 2.28408 3.04295 2.66385 2.66318Z" fill="white"/>
</g>
<defs>
<clipPath id="clip0_65_6334">
<rect width="16" height="16" fill="white"/>
</clipPath>
</defs>
</svg>
