<svg width="56" height="56" viewBox="0 0 56 56" fill="none" xmlns="http://www.w3.org/2000/svg">
<path d="M26.3095 45.5H22.7834V18.375H40.2834V30.7211C40.288 30.9502 40.3822 31.1683 40.5458 31.3286C40.7094 31.489 40.9294 31.5788 41.1584 31.5788C41.3875 31.5788 41.6075 31.4889 41.7711 31.3286C41.9347 31.1682 42.0288 30.9501 42.0334 30.7211V18.375C42.033 17.911 41.8484 17.4662 41.5203 17.1381C41.1923 16.81 40.7474 16.6255 40.2834 16.625H38.5334V14C38.533 13.536 38.3484 13.0912 38.0203 12.7631C37.6923 12.435 37.2474 12.2505 36.7834 12.25H30.6584V9.625C30.6584 9.39294 30.5662 9.17038 30.4021 9.00628C30.238 8.84219 30.0155 8.75 29.7834 8.75C29.5514 8.75 29.3288 8.84219 29.1647 9.00628C29.0006 9.17038 28.9084 9.39294 28.9084 9.625V12.25H22.7834V7.875C22.783 7.41101 22.5984 6.96616 22.2703 6.63807C21.9423 6.30999 21.4974 6.12546 21.0334 6.125H14.0334V3.5C14.0334 3.26794 13.9412 3.04538 13.7771 2.88128C13.613 2.71719 13.3905 2.625 13.1584 2.625C12.9264 2.625 12.7038 2.71719 12.5397 2.88128C12.3756 3.04538 12.2834 3.26794 12.2834 3.5V6.125H5.28342C4.81944 6.12546 4.37459 6.30999 4.0465 6.63807C3.71841 6.96616 3.53389 7.41101 3.53342 7.875V45.5H2.65842C2.42939 45.5046 2.21129 45.5988 2.05094 45.7624C1.89059 45.926 1.80077 46.146 1.80078 46.375C1.80079 46.6041 1.89062 46.8241 2.05098 46.9876C2.21134 47.1512 2.42945 47.2454 2.65849 47.25H26.3095C26.5393 47.2466 26.7586 47.1529 26.9199 46.9892C27.0812 46.8255 27.1716 46.6048 27.1716 46.375C27.1716 46.1452 27.0812 45.9245 26.9199 45.7608C26.7586 45.5971 26.5393 45.5034 26.3095 45.5ZM36.7834 14V16.625H22.7834V14H36.7834ZM5.28342 7.875H21.0334V45.5H16.6584V36.75C16.6584 36.5179 16.5662 36.2954 16.4021 36.1313C16.238 35.9672 16.0155 35.875 15.7834 35.875H9.65842C9.42636 35.875 9.20381 35.9672 9.03972 36.1313C8.87563 36.2954 8.78344 36.5179 8.78342 36.75V45.5H5.28342V7.875ZM10.5334 45.5V37.625H14.9084V45.5H10.5334Z" fill="#002868"/>
<path d="M38.5332 22.75C38.5327 22.286 38.3482 21.8412 38.0201 21.5131C37.692 21.185 37.2472 21.0005 36.7832 21H34.1582C33.6942 21.0005 33.2494 21.185 32.9213 21.5131C32.5932 21.8412 32.4087 22.286 32.4082 22.75V25.375C32.4087 25.839 32.5932 26.2838 32.9213 26.6119C33.2494 26.94 33.6942 27.1245 34.1582 27.125H36.7832C37.2472 27.1245 37.692 26.94 38.0201 26.6119C38.3482 26.2838 38.5327 25.839 38.5332 25.375V22.75ZM36.7832 25.375H34.1582V22.75H36.7832V25.375Z" fill="#002868"/>
<path d="M37.6591 31.5961C37.782 31.5952 37.9034 31.5687 38.0156 31.5183C38.1277 31.4679 38.2282 31.3947 38.3105 31.3033C38.3928 31.212 38.4552 31.1045 38.4937 30.9877C38.5322 30.8709 38.5459 30.7474 38.5341 30.625C38.5336 30.161 38.3491 29.7162 38.021 29.3881C37.6929 29.06 37.248 28.8755 36.7841 28.875H34.1591C33.6951 28.8755 33.2502 29.06 32.9221 29.3881C32.594 29.7162 32.4095 30.161 32.4091 30.625C32.3963 30.7476 32.4093 30.8715 32.4475 30.9887C32.4856 31.1059 32.548 31.2137 32.6305 31.3053C32.713 31.3968 32.8138 31.47 32.9264 31.5202C33.0389 31.5703 33.1608 31.5962 33.2841 31.5962C33.4073 31.5962 33.5292 31.5703 33.6418 31.5202C33.7543 31.47 33.8552 31.3968 33.9377 31.3053C34.0201 31.2137 34.0825 31.1059 34.1206 30.9887C34.1588 30.8715 34.1719 30.7476 34.1591 30.625H36.7841C36.7722 30.7474 36.786 30.8709 36.8244 30.9877C36.8629 31.1045 36.9253 31.212 37.0076 31.3033C37.0899 31.3947 37.1904 31.4679 37.3025 31.5183C37.4147 31.5687 37.5361 31.5952 37.6591 31.5961Z" fill="#002868"/>
<path d="M30.6582 22.75C30.6577 22.286 30.4732 21.8412 30.1451 21.5131C29.817 21.185 29.3722 21.0005 28.9082 21H26.2832C25.8192 21.0005 25.3744 21.185 25.0463 21.5131C24.7182 21.8412 24.5337 22.286 24.5332 22.75V25.375C24.5337 25.839 24.7182 26.2838 25.0463 26.6119C25.3744 26.94 25.8192 27.1245 26.2832 27.125H28.9082C29.3722 27.1245 29.817 26.94 30.1451 26.6119C30.4732 26.2838 30.6577 25.839 30.6582 25.375V22.75ZM28.9082 25.375H26.2832V22.75H28.9082V25.375Z" fill="#002868"/>
<path d="M29.7832 31.5961C29.9062 31.5952 30.0276 31.5687 30.1397 31.5183C30.2519 31.4679 30.3523 31.3947 30.4346 31.3033C30.5169 31.212 30.5793 31.1045 30.6178 30.9877C30.6563 30.8709 30.6701 30.7474 30.6582 30.625C30.6577 30.161 30.4732 29.7162 30.1451 29.3881C29.817 29.06 29.3722 28.8755 28.9082 28.875H26.2832C25.8192 28.8755 25.3744 29.06 25.0463 29.3881C24.7182 29.7162 24.5337 30.161 24.5332 30.625V33.25C24.5337 33.4804 24.5795 33.7085 24.6682 33.9211C24.7568 34.1338 24.8865 34.3269 25.0498 34.4894C25.2131 34.6519 25.4069 34.7807 25.62 34.8683C25.8331 34.9559 26.0614 35.0007 26.2918 35C26.5209 34.9944 26.7386 34.8992 26.8983 34.7348C27.058 34.5704 27.1468 34.35 27.1457 34.1208C27.1446 33.8916 27.0536 33.6721 26.8923 33.5092C26.7311 33.3464 26.5124 33.2533 26.2832 33.25V30.625H28.9082C28.8963 30.7474 28.9101 30.8709 28.9486 30.9877C28.9871 31.1045 29.0495 31.212 29.1318 31.3033C29.2141 31.3947 29.3145 31.4679 29.4267 31.5183C29.5388 31.5687 29.6602 31.5952 29.7832 31.5961Z" fill="#002868"/>
<path d="M27.1971 37.625C26.9013 35.8506 24.3947 37.0561 24.5328 38.5L24.5328 41.125C24.5332 41.589 24.7177 42.0339 25.0458 42.362C25.3739 42.6901 25.8188 42.8746 26.2828 42.875H28.9078C29.3717 42.8746 29.8166 42.6901 30.1447 42.362C30.4728 42.0339 30.6573 41.589 30.6578 41.125V40.3902C30.6534 40.161 30.5593 39.9427 30.3957 39.7821C30.232 39.6216 30.012 39.5317 29.7827 39.5317C29.5535 39.5317 29.3334 39.6216 29.1698 39.7822C29.0062 39.9427 28.9121 40.1611 28.9078 40.3902V41.125H26.2828L26.3614 38.5C26.4742 38.4992 26.5858 38.4758 26.6894 38.431C26.793 38.3862 26.8866 38.3211 26.9645 38.2395C27.0425 38.1579 27.1032 38.0614 27.1432 37.9559C27.1831 37.8503 27.2014 37.7378 27.1971 37.625Z" fill="#002868"/>
<path d="M15.7832 15.75H17.5332C17.9972 15.7495 18.442 15.565 18.7701 15.2369C19.0982 14.9088 19.2827 14.464 19.2832 14V11.375C19.2827 10.911 19.0982 10.4662 18.7701 10.1381C18.442 9.80999 17.9972 9.62546 17.5332 9.625H15.7832C15.3192 9.62546 14.8744 9.80999 14.5463 10.1381C14.2182 10.4662 14.0337 10.911 14.0332 11.375V14C14.0337 14.464 14.2182 14.9088 14.5463 15.2369C14.8744 15.565 15.3192 15.7495 15.7832 15.75ZM15.7832 11.375H17.5332V14H15.7832V11.375Z" fill="#002868"/>
<path d="M15.7832 23.625H17.5332C17.9972 23.6245 18.442 23.44 18.7701 23.1119C19.0982 22.7838 19.2827 22.339 19.2832 21.875V19.25C19.2827 18.786 19.0982 18.3412 18.7701 18.0131C18.442 17.685 17.9972 17.5005 17.5332 17.5H15.7832C15.3192 17.5005 14.8744 17.685 14.5463 18.0131C14.2182 18.3412 14.0337 18.786 14.0332 19.25V21.875C14.0337 22.339 14.2182 22.7838 14.5463 23.1119C14.8744 23.44 15.3192 23.6245 15.7832 23.625ZM15.7832 19.25H17.5332V21.875H15.7832V19.25Z" fill="#002868"/>
<path d="M15.7832 31.5H17.5332C17.9972 31.4995 18.442 31.315 18.7701 30.9869C19.0982 30.6588 19.2827 30.214 19.2832 29.75V27.125C19.2827 26.661 19.0982 26.2162 18.7701 25.8881C18.442 25.56 17.9972 25.3755 17.5332 25.375H15.7832C15.3192 25.3755 14.8744 25.56 14.5463 25.8881C14.2182 26.2162 14.0337 26.661 14.0332 27.125V29.75C14.0337 30.214 14.2182 30.6588 14.5463 30.9869C14.8744 31.315 15.3192 31.4995 15.7832 31.5ZM15.7832 27.125H17.5332V29.75H15.7832V27.125Z" fill="#002868"/>
<path d="M8.7832 15.75H10.5332C10.9972 15.7495 11.442 15.565 11.7701 15.2369C12.0982 14.9088 12.2827 14.464 12.2832 14V11.375C12.2827 10.911 12.0982 10.4662 11.7701 10.1381C11.442 9.80999 10.9972 9.62546 10.5332 9.625H8.7832C8.31922 9.62546 7.87437 9.80999 7.54628 10.1381C7.21819 10.4662 7.03367 10.911 7.0332 11.375V14C7.03367 14.464 7.21819 14.9088 7.54628 15.2369C7.87437 15.565 8.31922 15.7495 8.7832 15.75ZM8.7832 11.375H10.5332V14H8.7832V11.375Z" fill="#002868"/>
<path d="M8.7832 23.625H10.5332C10.9972 23.6245 11.442 23.44 11.7701 23.1119C12.0982 22.7838 12.2827 22.339 12.2832 21.875V19.25C12.2827 18.786 12.0982 18.3412 11.7701 18.0131C11.442 17.685 10.9972 17.5005 10.5332 17.5H8.7832C8.31922 17.5005 7.87437 17.685 7.54628 18.0131C7.21819 18.3412 7.03367 18.786 7.0332 19.25V21.875C7.03367 22.339 7.21819 22.7838 7.54628 23.1119C7.87437 23.44 8.31922 23.6245 8.7832 23.625ZM8.7832 19.25H10.5332V21.875H8.7832V19.25Z" fill="#002868"/>
<path d="M8.7832 31.5H10.5332C10.9972 31.4995 11.442 31.315 11.7701 30.9869C12.0982 30.6588 12.2827 30.214 12.2832 29.75V27.125C12.2827 26.661 12.0982 26.2162 11.7701 25.8881C11.442 25.56 10.9972 25.3755 10.5332 25.375H8.7832C8.31922 25.3755 7.87437 25.56 7.54628 25.8881C7.21819 26.2162 7.03367 26.661 7.0332 27.125V29.75C7.03367 30.214 7.21819 30.6588 7.54628 30.9869C7.87437 31.315 8.31922 31.4995 8.7832 31.5ZM8.7832 27.125H10.5332V29.75H8.7832V27.125Z" fill="#002868"/>
<path d="M53.459 33.99L46.5265 29.1869C46.2624 29.0096 45.9553 28.9071 45.6376 28.8903C45.32 28.8735 45.0037 28.943 44.7224 29.0915C44.4411 29.24 44.2052 29.4619 44.0399 29.7336C43.8745 30.0053 43.7858 30.3168 43.7832 30.6348V32.4732H29.7832C29.3182 32.4748 28.8727 32.6608 28.5446 32.9904C28.2166 33.32 28.0326 33.7663 28.0332 34.2313V36.8807C28.0326 37.3457 28.2166 37.792 28.5446 38.1216C28.8727 38.4512 29.3182 38.6372 29.7832 38.6388L43.7832 38.6469V40.2401C43.7857 40.5582 43.8744 40.8697 44.0398 41.1415C44.2051 41.4132 44.441 41.6351 44.7224 41.7836C45.0037 41.932 45.32 42.0015 45.6377 41.9846C45.9554 41.9677 46.2625 41.8651 46.5265 41.6876L53.459 36.885C53.6901 36.7209 53.8786 36.5039 54.0087 36.2521C54.1388 36.0002 54.2066 35.7209 54.2066 35.4375C54.2066 35.154 54.1388 34.8747 54.0087 34.6229C53.8786 34.371 53.6901 34.154 53.459 33.99ZM52.4627 35.4464L45.5332 40.2401V38.647C45.5337 38.1819 45.3498 37.7356 45.0217 37.406C44.6936 37.0764 44.2482 36.8904 43.7832 36.8888L29.7832 36.8807V34.2232H43.7832C44.2482 34.2217 44.6936 34.0357 45.0217 33.7061C45.3498 33.3765 45.5337 32.9302 45.5332 32.4651L45.5302 30.6254C45.5302 30.6254 52.4627 35.4285 52.4627 35.4464Z" fill="#002868"/>
<path d="M52.4664 43.8483L38.4664 43.8402V42.0099C38.4638 41.6918 38.3751 41.3803 38.2098 41.1086C38.0444 40.8369 37.8085 40.615 37.5272 40.4666C37.2458 40.3181 36.9295 40.2487 36.6119 40.2655C36.2942 40.2824 35.9871 40.385 35.7231 40.5624L28.7906 45.365C28.5595 45.529 28.371 45.746 28.2409 45.9978C28.1108 46.2496 28.043 46.5289 28.043 46.8123C28.043 47.0957 28.1109 47.375 28.2409 47.6268C28.371 47.8786 28.5595 48.0956 28.7906 48.2596L35.7231 53.0631C35.9872 53.2405 36.2943 53.343 36.612 53.3598C36.9297 53.3766 37.246 53.3071 37.5273 53.1586C37.8086 53.0101 38.0445 52.7882 38.2098 52.5165C38.3752 52.2447 38.4638 51.9333 38.4664 51.6152V50.0139H52.4664C52.9315 50.0123 53.3769 49.8263 53.705 49.4967C54.033 49.1671 54.217 48.7208 54.2164 48.2558V45.6064C54.217 45.1414 54.0331 44.6951 53.705 44.3655C53.3769 44.0359 52.9315 43.8499 52.4664 43.8483ZM52.4664 48.2639H38.4664C38.0014 48.2655 37.5559 48.4515 37.2279 48.7811C36.8998 49.1107 36.7159 49.557 36.7164 50.022L36.7194 51.6246L29.7839 46.8061L36.7164 42.0099V43.8402C36.7159 44.3052 36.8998 44.7515 37.2279 45.0811C37.556 45.4107 38.0014 45.5967 38.4664 45.5983L52.4664 45.6064V48.2639Z" fill="#002868"/>
</svg>
